# Blender v2.78 (sub 0) OBJ File: 'wings.blend'
# www.blender.org
o Plane
v -1.470251 -0.099600 0.537195
v 1.470251 -0.099600 0.537195
v -0.913424 -0.228234 -1.940015
v 0.913424 -0.228234 -1.940015
v -2.318640 -0.003213 1.530920
v 2.318640 -0.003213 1.530920
v -1.679058 -0.290254 -2.078518
v 1.679059 -0.290254 -2.078519
v 5.883408 -0.705424 -2.744259
v 6.662863 -0.071633 2.166779
v 8.398288 -0.534708 -2.263286
v 1.973774 -0.327790 -1.196372
v -5.883408 -0.705424 -2.744259
v -5.682468 -0.051909 2.015701
v 9.950617 -0.253909 -1.108734
v 2.176572 -0.253323 -0.301420
v 2.271803 -0.090709 0.627382
v 7.401333 -0.065927 1.163658
v -8.398289 -0.534708 -2.263287
v -1.973773 -0.327790 -1.196371
v -9.950617 -0.253909 -1.108734
v -2.176572 -0.253323 -0.301420
v -2.271803 -0.090709 0.627382
v -7.401333 -0.065927 1.163658
v -1.312984 -0.282345 -0.693399
v 1.312984 -0.282345 -0.693399
vn 0.0203 -0.9998 0.0003
vn -0.0203 -0.9998 0.0003
vn -0.0315 -0.9864 0.1612
vn 0.0042 -0.9937 0.1121
vn 0.0315 -0.9864 0.1612
vn -0.0042 -0.9937 0.1121
vn -0.0442 -0.9886 0.1440
vn 0.0442 -0.9886 0.1440
vn -0.0095 -0.9992 0.0394
vn 0.0088 -0.9987 0.0494
vn 0.0073 -0.9863 0.1647
vn -0.0073 -0.9863 0.1647
s off
f 7//1 3//1 25//1 22//1
f 8//2 16//2 26//2 4//2
f 8//3 9//3 11//3 12//3
f 16//4 15//4 18//4 17//4
f 7//5 20//5 19//5 13//5
f 22//6 23//6 24//6 21//6
f 2//7 26//7 16//7 6//7
f 1//8 5//8 22//8 25//8
f 17//9 18//9 10//9 6//9
f 23//10 5//10 14//10 24//10
f 12//11 11//11 15//11 16//11
f 20//12 22//12 21//12 19//12
l 8 6
l 7 5
