# Blender v2.78 (sub 0) OBJ File: 'wings.blend'
# www.blender.org
o Plane
v -1.447205 -0.329765 0.428267
v 1.447915 -0.354906 0.537195
v -0.628864 -0.687787 -1.947030
v 0.796967 -0.742026 -1.884852
v -2.322725 -0.445907 1.418944
v 2.247586 -0.467355 1.590449
v -1.326393 -0.972579 -2.113395
v 1.499679 -1.040817 -1.995532
v 3.358305 -4.435094 -2.246098
v 3.218848 -4.745222 2.404009
v 4.363850 -6.726230 -1.451235
v 1.875058 -0.866403 -1.152831
v -3.215882 -4.329787 -2.557675
v -3.185537 -3.767258 1.926397
v 4.738834 -8.101395 -0.224903
v 2.114678 -0.722789 -0.268429
v 2.156198 -0.619817 0.694949
v 3.309973 -5.535743 1.495818
v -4.312737 -6.616170 -1.878273
v -1.758969 -0.805741 -1.296991
v -4.797403 -8.004839 -0.706829
v -2.059672 -0.672720 -0.429758
v -2.169184 -0.585043 0.529796
v -3.456148 -5.493020 1.157813
v -1.205871 -0.405316 -0.806894
v 1.295020 -0.448557 -0.710775
vn 0.3560 -0.8687 0.3443
vn -0.3948 -0.8567 0.3320
vn -0.8835 -0.4265 0.1937
vn -0.9357 -0.3002 -0.1851
vn 0.8602 -0.4448 0.2493
vn 0.9418 -0.3132 -0.1225
vn -0.3473 -0.9278 0.1362
vn 0.3217 -0.9358 0.1444
vn -0.9726 -0.2059 0.1078
vn 0.9568 -0.2244 0.1849
vn -0.9307 -0.3606 0.0606
vn 0.9180 -0.3775 0.1211
s off
f 7//1 3//1 25//1 22//1
f 8//2 16//2 26//2 4//2
f 8//3 9//3 11//3 12//3
f 16//4 15//4 18//4 17//4
f 7//5 20//5 19//5 13//5
f 22//6 23//6 24//6 21//6
f 2//7 26//7 16//7 6//7
f 1//8 5//8 22//8 25//8
f 17//9 18//9 10//9 6//9
f 23//10 5//10 14//10 24//10
f 12//11 11//11 15//11 16//11
f 20//12 22//12 21//12 19//12
l 8 6
l 7 5
