# Blender v2.78 (sub 0) OBJ File: 'wings.blend'
# www.blender.org
o Plane
v -1.448146 0.154459 0.557464
v 1.448129 0.154462 0.559813
v -0.644570 -0.799476 -1.529351
v 0.629838 -0.764196 -1.532023
v -2.183301 0.556242 1.557356
v 2.187323 0.538577 1.563819
v -1.233592 -0.375485 -1.923355
v 1.215756 -0.333720 -1.925188
v 3.279296 3.590840 -2.695981
v 3.307207 4.811673 1.558498
v 4.079823 6.145383 -1.866552
v 1.756065 0.025263 -1.166718
v -3.289649 3.532359 -2.757911
v -3.034851 3.867559 1.491065
v 4.482716 7.699398 -0.808173
v 2.070856 0.264361 -0.312712
v 2.202106 0.405684 0.652739
v 3.594004 5.349273 0.605310
v -4.087253 6.100175 -1.979441
v -1.766095 -0.004725 -1.166100
v -4.488029 7.672453 -0.951862
v -2.075294 0.248761 -0.313995
v -2.201420 0.407122 0.649027
v -3.593920 5.348538 0.509053
v -1.266190 -0.270397 -0.513415
v 1.261902 -0.250966 -0.514641
vn -0.5632 -0.8249 0.0485
vn 0.5638 -0.8254 0.0300
vn 0.9143 -0.4039 -0.0310
vn 0.9558 -0.2922 0.0330
vn -0.9148 -0.4033 -0.0206
vn -0.9557 -0.2914 0.0424
vn 0.3943 -0.9035 0.1676
vn -0.3931 -0.9006 0.1854
vn 0.9603 -0.2611 0.0987
vn -0.9597 -0.2582 0.1111
vn 0.9421 -0.3328 -0.0415
vn -0.9423 -0.3332 -0.0323
s off
f 7//1 3//1 25//1 22//1
f 8//2 16//2 26//2 4//2
f 8//3 9//3 11//3 12//3
f 16//4 15//4 18//4 17//4
f 7//5 20//5 19//5 13//5
f 22//6 23//6 24//6 21//6
f 2//7 26//7 16//7 6//7
f 1//8 5//8 22//8 25//8
f 17//9 18//9 10//9 6//9
f 23//10 5//10 14//10 24//10
f 12//11 11//11 15//11 16//11
f 20//12 22//12 21//12 19//12
l 8 6
l 7 5
