# Blender v2.78 (sub 0) OBJ File: 'more_builds.blend'
# www.blender.org
mtllib arbox.mtl
o Cube.022_Cube.019
v 7.500003 14.999998 30.000000
v 7.499997 -15.000002 30.000000
v 7.500003 14.999998 -30.000000
v 7.499997 -15.000002 -30.000000
v -7.499997 15.000002 30.000000
v -7.500003 -14.999998 30.000000
v -7.499997 15.000002 -30.000000
v -7.500003 -14.999998 -30.000000
v 7.500003 14.999998 0.000000
v 7.499997 -15.000002 0.000000
v -7.499997 15.000002 0.000000
v -7.500003 -14.999998 0.000000
vn 1.0000 -0.0000 0.0000
vn 0.0000 0.0000 -1.0000
vn 0.0000 0.0000 1.0000
vn 0.0000 1.0000 0.0000
vn -0.0000 -1.0000 0.0000
vn -1.0000 0.0000 0.0000
usemtl box
s off
f 9//1 10//1 4//1 3//1
f 3//2 4//2 8//2 7//2
f 5//3 6//3 2//3 1//3
f 9//4 11//4 5//4 1//4
f 12//5 10//5 2//5 6//5
f 8//5 4//5 10//5 12//5
f 3//4 7//4 11//4 9//4
f 1//1 2//1 10//1 9//1
usemtl A0000_1
f 7//6 8//6 6//6 5//6
