# Blender v2.78 (sub 0) OBJ File: 'more_builds.blend'
# www.blender.org
mtllib booster.mtl
o Cube.049
v 40.000000 40.000000 40.000000
v 40.000000 -40.000000 40.000000
v 40.000000 40.000000 -40.000000
v 40.000000 -40.000000 -40.000000
v -40.000000 40.000000 40.000000
v -40.000000 -40.000000 40.000000
v -40.000000 40.000000 -40.000000
v -40.000000 -40.000000 -40.000000
v 20.062059 40.000000 0.000000
v -19.937941 -40.000000 0.000000
v 20.062059 -40.000000 40.000000
v -19.937941 40.000000 40.000000
v 30.000000 -20.000000 40.000000
v 30.000000 -20.000000 -40.000000
v -30.000000 -20.000000 -40.000000
v -30.000000 -20.000000 40.000000
v 40.000000 40.000000 0.000000
v 40.000000 -40.000000 0.000000
v -40.000000 40.000000 0.000000
v -40.000000 -40.000000 0.000000
v -19.937941 -40.000000 -40.000000
v 20.062059 40.000000 -40.000000
v -30.000000 -20.000000 0.000000
v 30.000000 -20.000000 0.000000
v 30.000000 20.000000 -40.000000
v -30.000000 20.000000 -40.000000
v -30.000000 20.000000 40.000000
v 30.000000 20.000000 40.000000
v 30.000000 20.000000 0.000000
v -30.000000 20.000000 0.000000
v 20.062061 -40.000000 -40.000000
v 20.062061 40.000000 40.000000
v -19.937939 40.000000 0.000000
v 20.062061 -40.000000 0.000000
v -19.937939 -40.000000 40.000000
v -19.937939 40.000000 -40.000000
vn 0.0000 -1.0000 -0.0000
vn 0.0000 1.0000 0.0000
vn -0.8944 0.4472 0.0000
vn -0.8944 -0.4472 0.0000
vn -0.8955 -0.4450 0.0000
vn -0.8955 0.4450 0.0000
vn 0.8944 0.4472 0.0000
vn 0.8944 -0.4472 0.0000
vn 0.8933 0.4494 -0.0000
vn 0.8933 -0.4494 0.0000
usemtl MEDU_boost2
s off
f 9//1 32//1 12//1 33//1
f 22//1 9//1 33//1 36//1
f 21//2 10//2 34//2 31//2
f 10//2 35//2 11//2 34//2
usemtl ADM00_06
f 23//3 20//3 6//3 16//3
f 15//3 8//3 20//3 23//3
f 7//4 26//4 30//4 19//4
f 19//4 30//4 27//4 5//4
f 22//5 25//5 29//5 9//5
f 28//5 32//5 9//5 29//5
f 34//6 24//6 14//6 31//6
f 34//6 11//6 13//6 24//6
usemtl ADM00_07
f 24//7 18//7 4//7 14//7
f 13//7 2//7 18//7 24//7
f 1//8 28//8 29//8 17//8
f 17//8 29//8 25//8 3//8
f 23//9 16//9 35//9 10//9
f 15//9 23//9 10//9 21//9
f 27//10 30//10 33//10 12//10
f 30//10 26//10 36//10 33//10
