# Blender v2.78 (sub 0) OBJ File: 'more_builds.blend'
# www.blender.org
mtllib bridge1.mtl
o Plane.005_Plane.003
v 194.418213 -61.831329 -47.089340
v -194.418091 -61.831329 47.089340
v -194.581177 -61.831329 -46.410538
v 194.581421 -61.831329 46.410538
v 145.168213 -61.831329 -47.003281
v 145.331421 -61.831329 46.496353
v -158.331299 -61.831329 -46.473648
v -158.168091 -61.831329 47.025986
v -19.753902 -61.831329 -46.715454
v -19.590702 -61.831329 46.784180
v 194.336548 -54.831299 -93.839340
v 194.662964 -54.831299 93.160416
v -158.086548 -54.831268 93.775864
v -194.336426 -54.831299 93.839340
v -158.413086 -54.831238 -93.224014
v -194.662964 -54.831268 -93.160660
v -19.835564 -54.831299 -93.465454
v 145.086670 -54.831299 -93.753403
v -19.509163 -54.831299 93.534058
v 194.336548 -83.168701 -93.839340
v -158.412842 -83.168701 -93.223648
v -194.662842 -83.168701 -93.160416
v -19.835564 -83.168701 -93.465454
v 145.412964 -54.831299 93.246353
v 145.086670 -83.168701 -93.753403
v 194.662964 -83.168701 93.160416
v -158.086548 -83.168701 93.775986
v -194.336426 -83.168701 93.839340
v -19.509163 -83.168701 93.534058
v 145.412964 -83.168701 93.246353
v 194.336548 -36.831329 -93.839340
v -194.662964 -36.831299 -93.160660
v 194.418213 -36.831329 -47.089340
v -194.581299 -36.831299 -46.410660
v 194.662964 -36.831329 93.160416
v -194.336548 -36.831299 93.839096
v -194.418091 -36.831299 47.089218
v 194.581421 -36.831329 46.410538
v 194.336548 83.168686 -93.839340
v 194.418213 83.168686 -47.089340
v 194.662964 83.168686 93.160416
v 194.581421 83.168686 46.410538
v 154.336548 -36.831329 -93.839340
v 154.662964 -36.831329 93.160416
v 154.336548 83.168686 -93.839340
v 154.662964 83.168686 93.160416
v -194.662964 83.074081 -93.160660
v -194.418091 83.074051 -46.410660
v -194.336670 83.074081 93.839096
v -194.336548 83.074081 47.089218
v -154.928467 -36.925964 -93.224014
v -155.254822 -36.925964 93.775864
v -154.928467 83.074051 -93.223892
v -155.254822 83.074051 93.775864
v 22.352898 -83.168701 93.461060
v 22.026497 -54.831299 -93.538574
v 22.026497 -83.168701 -93.538574
v 22.352898 -54.831299 93.461060
v 22.271358 -61.831329 46.711060
v 22.108158 -61.831329 -46.788574
v 194.418213 -83.168701 -47.089340
v -194.418091 -83.168701 47.089340
v -194.581177 -83.168701 -46.410538
v 194.581421 -83.168701 46.410538
v 145.168213 -83.168701 -47.003281
v 145.331421 -83.168701 46.496353
v -158.331299 -83.168701 -46.473648
v -158.168091 -83.168701 47.025986
v -19.753902 -83.168701 -46.715454
v -19.590702 -83.168701 46.784180
v 22.271358 -83.168701 46.711060
v 22.108158 -83.168701 -46.788574
v -0.163208 -36.831314 -93.500000
v 0.163208 -36.831314 93.499756
v 0.081665 -61.831329 46.749939
v -0.081482 -61.831329 -46.749939
v 0.163269 -54.831299 93.499878
v -0.163208 -54.831284 -93.500000
vn -0.0003 -0.9890 -0.1481
vn 0.0003 -0.9890 0.1481
vn 0.0000 -1.0000 0.0000
vn -0.0017 -0.0000 -1.0000
vn 0.0017 0.0000 1.0000
vn -1.0000 -0.0000 0.0017
vn 1.0000 0.0000 -0.0017
vn 0.0000 0.0000 -1.0000
vn 0.0000 0.0000 1.0000
vn -1.0000 0.0003 0.0009
vn -1.0000 0.0007 0.0035
vn -0.0016 0.0000 -1.0000
vn 0.0016 0.0000 1.0000
vn 0.0000 1.0000 0.0000
usemtl INDX_00
s off
f 60//1 56//1 18//1 5//1
f 19//2 13//2 8//2 10//2
f 59//2 6//2 24//2 58//2
f 17//1 9//1 7//1 15//1
f 21//3 67//3 63//3 22//3
f 27//3 28//3 62//3 68//3
f 55//3 29//3 70//3 71//3
f 57//3 72//3 69//3 23//3
f 30//3 66//3 64//3 26//3
f 25//3 20//3 61//3 65//3
usemtl INDX_07
f 76//3 1//3 4//3 75//3
f 3//3 76//3 75//3 2//3
usemtl INDX_04
f 15//4 21//4 22//4 16//4
f 11//4 20//4 25//4 18//4
f 23//4 17//4 56//4 57//4
f 13//5 14//5 28//5 27//5
f 37//6 34//6 3//6 2//6
f 12//5 24//5 30//5 26//5
f 78//4 73//4 31//4 11//4
f 29//5 55//5 58//5 19//5
f 1//7 33//7 38//7 4//7
f 73//4 78//4 16//4 32//4
f 34//6 32//6 22//6 63//6
f 37//6 62//6 28//6 36//6
f 38//7 35//7 26//7 64//7
f 33//7 61//7 20//7 31//7
f 62//4 2//4 8//4 68//4
f 70//4 10//4 59//4 71//4
f 66//4 6//4 4//4 64//4
f 65//5 61//5 1//5 5//5
f 69//5 72//5 60//5 9//5
f 63//5 67//5 7//5 3//5
f 55//7 71//7 59//7 58//7
f 29//6 19//6 10//6 70//6
f 23//6 69//6 9//6 17//6
f 57//7 56//7 60//7 72//7
f 21//7 15//7 7//7 67//7
f 27//7 68//7 8//7 13//7
f 30//6 24//6 6//6 66//6
f 25//6 65//6 5//6 18//6
f 12//5 35//5 74//5 77//5
f 74//5 36//5 14//5 77//5
usemtl 0D000_0
f 35//7 38//7 42//7 41//7
f 33//7 31//7 39//7 40//7
f 39//8 31//8 43//8 45//8
f 35//9 41//9 46//9 44//9
f 36//10 49//10 50//10 37//10
f 34//11 48//11 47//11 32//11
f 47//12 53//12 51//12 32//12
f 36//13 52//13 54//13 49//13
usemtl 0000B_00
f 73//14 74//14 35//14 31//14
f 32//14 36//14 74//14 73//14
