# Blender v2.78 (sub 0) OBJ File: 'more_builds.blend'
# www.blender.org
mtllib bridge0.mtl
o Cube.045
v -60.000000 42.425144 159.999985
v 60.000000 42.425144 159.999985
v -60.000000 43.469952 -159.999985
v 60.000000 43.469952 -159.999985
v -31.437378 42.425144 159.999985
v -31.437378 43.469952 -159.999985
v 46.437378 31.977053 159.999985
v 60.000000 31.977053 159.999985
v 46.437378 33.021858 -159.999985
v 60.000000 33.021858 -159.999985
v -60.000000 31.977053 159.999985
v -60.000000 33.021858 -159.999985
v -46.437378 31.977053 159.999985
v -46.437378 33.021858 -159.999985
v 31.437378 42.425144 159.999985
v 31.437378 43.469952 -159.999985
v -60.000000 48.955193 159.999985
v 60.000000 48.955193 159.999985
v -60.000000 50.000000 -159.999985
v 60.000000 50.000000 -159.999985
v 60.000000 42.947544 138.666687
v -60.000000 42.947544 138.666687
v -31.437378 42.947544 138.666687
v 60.000000 32.499454 138.666687
v -60.000000 32.499454 138.666687
v 46.437378 32.499454 138.666687
v -46.437378 32.499454 138.666687
v 31.437378 42.947544 138.666687
v 60.000000 49.477596 138.666687
v -60.000000 49.477596 138.666687
v -60.000000 43.208748 -138.666656
v -31.437378 43.208748 -138.666656
v -60.000000 32.760654 -138.666656
v 46.437378 32.760654 -138.666656
v -46.437378 32.760654 -138.666656
v 31.437378 43.208748 -138.666656
v -60.000000 49.738796 -138.666656
v 60.000000 43.208748 -138.666656
v 60.000000 32.760654 -138.666656
v 60.000000 49.738796 -138.666656
v 6.781312 -49.216389 -138.666656
v 6.781312 -48.955185 -159.999985
v -6.781312 -49.999996 159.999985
v 6.781312 -49.477592 138.666687
v -6.781312 -48.955185 -159.999985
v 6.781312 -49.999996 159.999985
v -6.781312 -49.216389 -138.666656
v -6.781312 -49.477592 138.666687
v 0.000000 -38.761494 138.666687
v 0.000000 -38.500294 -138.666656
v 0.000000 -38.239082 -159.999985
v 0.000000 -39.283897 159.999985
vn -0.0000 0.0000 -1.0000
vn 0.0000 -0.9999 -0.0122
vn 1.0000 0.0000 0.0000
vn 0.0000 0.0000 1.0000
vn -1.0000 0.0000 0.0000
vn 0.0000 0.9997 0.0245
vn 0.0000 1.0000 0.0009
vn 0.5716 -0.8206 -0.0008
vn -0.5715 -0.8205 -0.0100
vn 0.0000 -0.9997 -0.0245
vn -0.5716 -0.8206 -0.0008
vn 0.8377 0.5459 0.0134
vn -0.8377 0.5459 0.0134
vn 0.0000 0.9999 0.0122
vn 0.0000 -1.0000 -0.0009
vn 0.5715 -0.8205 -0.0100
vn -0.8387 -0.5445 -0.0133
vn 0.8387 -0.5445 -0.0067
vn 0.8387 -0.5445 -0.0133
vn 0.5714 -0.8204 -0.0201
vn -0.8387 -0.5445 -0.0067
vn -0.5714 -0.8204 -0.0201
vn 0.8378 0.5459 0.0067
vn -0.8378 0.5459 0.0067
vn -0.8450 0.5347 0.0005
vn 0.8450 0.5347 0.0005
usemtl INDX_00
s off
f 12//1 14//1 51//1 45//1
f 36//2 32//2 6//2 16//2
f 21//3 2//3 8//3 24//3
f 11//4 43//4 52//4 13//4
f 35//4 33//4 47//4 50//4
f 31//5 3//5 12//5 33//5
f 13//4 5//4 1//4 11//4
f 7//4 8//4 2//4 15//4
f 14//1 12//1 3//1 6//1
f 9//1 16//1 4//1 10//1
f 38//3 4//3 20//3 40//3
f 22//5 1//5 17//5 30//5
f 20//1 4//1 3//1 19//1
f 18//4 17//4 1//4 2//4
f 29//6 30//6 17//6 18//6
f 40//7 37//7 30//7 29//7
f 31//5 22//5 30//5 37//5
f 2//3 21//3 29//3 18//3
f 32//8 23//8 27//8 35//8
f 1//5 22//5 25//5 11//5
f 25//1 27//1 49//1 48//1
f 16//9 9//9 34//9 36//9
f 38//3 21//3 24//3 39//3
f 15//10 5//10 23//10 28//10
f 34//11 26//11 28//11 36//11
f 27//12 13//12 52//12 49//12
f 4//3 38//3 39//3 10//3
f 7//13 26//13 49//13 52//13
f 3//5 31//5 37//5 19//5
f 20//14 19//14 37//14 40//14
f 21//3 38//3 40//3 29//3
f 22//5 31//5 33//5 25//5
f 24//15 26//15 34//15 39//15
f 27//15 25//15 33//15 35//15
f 28//15 23//15 32//15 36//15
f 41//2 47//2 45//2 42//2
f 46//10 43//10 48//10 44//10
f 32//16 35//16 14//16 6//16
f 11//17 25//17 48//17 43//17
f 44//1 49//1 26//1 24//1
f 7//4 52//4 46//4 8//4
f 10//18 39//18 41//18 42//18
f 24//19 8//19 46//19 44//19
f 13//20 27//20 23//20 5//20
f 33//21 12//21 45//21 47//21
f 15//22 28//22 26//22 7//22
f 43//4 46//4 52//4
f 34//4 50//4 41//4 39//4
f 9//1 10//1 42//1 51//1
f 50//23 51//23 14//23 35//23
f 50//24 34//24 9//24 51//24
f 45//1 51//1 42//1
f 49//25 50//25 47//25 48//25
f 41//26 50//26 49//26 44//26
f 44//15 48//15 47//15 41//15
