# Blender v2.78 (sub 0) OBJ File: 'more_builds.blend'
# www.blender.org
mtllib ffield.mtl
o Cube.003_Cube.004
v 8.500000 8.500000 8.500000
v 8.500000 -8.500000 8.500000
v 8.500000 8.500000 -8.500000
v 8.500000 -8.500000 -8.500000
v -8.500000 8.500000 8.500000
v -8.500000 -8.500000 8.500000
v -8.500000 8.500000 -8.500000
v -8.500000 -8.500000 -8.500000
vn 1.0000 0.0000 0.0000
vn 0.0000 0.0000 -1.0000
vn -1.0000 0.0000 0.0000
vn 0.0000 0.0000 1.0000
vn 0.0000 -1.0000 0.0000
usemtl MESH_ffield
s off
f 1//1 2//1 4//1 3//1
f 3//2 4//2 8//2 7//2
f 7//3 8//3 6//3 5//3
f 5//4 6//4 2//4 1//4
f 8//5 4//5 2//5 6//5
