# Blender v2.78 (sub 0) OBJ File: 'more_builds.blend'
# www.blender.org
mtllib flag.mtl
o Cube.002_Cube.003
v -0.500005 7.500002 0.500000
v -2.800000 -2.699998 -0.000000
v 0.499995 7.500002 0.500000
v 2.800000 -2.699998 0.000000
v -0.500005 7.500002 -0.500000
v -0.500005 -2.499998 -0.500000
v 0.499995 7.500002 -0.500000
v 0.499995 -2.499998 -0.500000
v -3.000000 -2.499998 0.500000
v -3.000000 -2.499998 -0.500000
v 3.000000 -2.499998 0.500000
v 3.000000 -2.499998 -0.500000
v -2.800000 -7.500002 -0.000000
v 2.800000 -7.500002 0.000000
v -0.500005 -2.499998 0.500000
v 0.499995 -2.499998 0.500000
v -3.000000 -7.500002 0.500000
v -3.000000 -7.500002 -0.500000
v 3.000000 -7.500002 0.500000
v 3.000000 -7.500002 -0.500000
v -0.500009 2.153797 0.500000
v 0.499991 2.153797 0.500000
v 0.499991 2.153797 -0.500000
v -0.500009 2.153797 -0.500000
vn -0.0000 -0.0000 1.0000
vn 1.0000 0.0000 0.0000
vn 0.0000 0.0000 -1.0000
vn -1.0000 -0.0000 0.0000
vn 0.0000 1.0000 -0.0000
usemtl NOTEX
s off
f 21//1 15//1 16//1 22//1
f 22//2 16//2 8//2 23//2
f 23//3 8//3 6//3 24//3
f 24//4 6//4 15//4 21//4
f 3//5 7//5 5//5 1//5
f 7//3 23//3 24//3 5//3
f 5//4 24//4 21//4 1//4
f 3//2 22//2 23//2 7//2
f 1//1 21//1 22//1 3//1
usemtl DUAL_FLAG
f 2//3 4//3 14//3 13//3
usemtl DUAL_NOTEX
f 10//5 9//5 11//5 12//5
f 11//2 19//2 20//2 12//2
f 10//4 18//4 17//4 9//4
