# Blender v2.78 (sub 0) OBJ File: 'more_builds.blend'
# www.blender.org
mtllib flagstan.mtl
o Cube_Cube.001
v 30.000000 4.000000 30.000000
v 15.955309 -4.000000 15.955307
v 30.000000 4.000000 -30.000000
v 15.955309 -4.000000 -15.955310
v -30.000000 4.000000 30.000000
v -15.955309 -4.000000 15.955307
v -30.000000 4.000000 -30.000000
v -15.955309 -4.000000 -15.955310
v 3.965035 -12.180035 3.981803
v -3.965034 -12.180035 3.981803
v 3.965035 -12.180035 -3.948267
v -3.965034 -12.180035 -3.948267
v 3.358709 -13.121416 3.375484
v -3.358708 -13.121416 3.375484
v 3.358709 -13.121416 -3.341933
v -3.358708 -13.121416 -3.341933
v 2.741811 -12.180035 2.758579
v -2.741810 -12.180035 2.758579
v 2.741811 -12.180035 -2.725042
v -2.741810 -12.180035 -2.725042
vn -0.4949 -0.8689 0.0000
vn 0.4949 -0.8689 0.0000
vn 0.0000 -1.0000 0.0000
vn 0.0000 -0.8689 0.4949
vn 0.0000 -0.8689 -0.4949
usemtl INDX_04
s off
f 7//1 8//1 6//1 5//1
f 1//2 2//2 4//2 3//2
f 8//3 4//3 2//3 6//3
f 5//4 6//4 2//4 1//4
f 3//5 4//5 8//5 7//5
usemtl ITEM_57
f 9//3 10//3 12//3 11//3
usemtl ITEM_55
f 13//3 14//3 16//3 15//3
usemtl ITEM_56
f 17//3 18//3 20//3 19//3
