# Blender v2.78 (sub 0) OBJ File: 'more_builds.blend'
# www.blender.org
mtllib flat.mtl
o Cube.016_Cube.014
v 25.500000 100.000000 100.000000
v 25.500000 -100.000000 100.000000
v 25.500000 100.000000 -100.000000
v 25.500000 -100.000000 -100.000000
v -25.500000 100.000000 100.000000
v -25.500000 -100.000000 100.000000
v -25.500000 100.000000 -100.000000
v -25.500000 -100.000000 -100.000000
vn -1.0000 0.0000 0.0000
vn 0.0000 0.0000 1.0000
vn 0.0000 1.0000 0.0000
vn 0.0000 -1.0000 0.0000
vn 1.0000 0.0000 0.0000
vn 0.0000 0.0000 -1.0000
usemtl INDX_02
s off
f 7//1 8//1 6//1 5//1
f 5//2 6//2 2//2 1//2
f 3//3 7//3 5//3 1//3
f 8//4 4//4 2//4 6//4
usemtl INDX_05
f 1//5 2//5 4//5 3//5
f 3//6 4//6 8//6 7//6
