# Blender v2.78 (sub 0) OBJ File: 'more_builds.blend'
# www.blender.org
mtllib float03.mtl
o Cube.006_Cube.005
v -39.116913 70.433151 -39.116913
v -80.000000 31.387589 -80.000000
v -39.116913 70.433151 39.116913
v -80.000000 31.387589 80.000000
v 39.116913 70.433151 -39.116913
v 80.000000 31.387589 -80.000000
v 39.116913 70.433151 39.116913
v 80.000000 31.387589 80.000000
v -80.000000 41.387589 -80.000000
v -80.000000 41.387589 80.000000
v 80.000000 41.387589 80.000000
v 80.000000 41.387589 -80.000000
v -55.999992 -48.612411 -56.000008
v -56.000008 -48.612411 55.999992
v 56.000008 -48.612411 -55.999992
v 55.999992 -48.612411 56.000008
v -24.767839 -70.433151 -24.767847
v -24.767847 -70.433151 24.767839
v 24.767839 -70.433151 24.767847
v 24.767847 -70.433151 -24.767839
v 43.000000 -48.612411 -43.000000
v 43.000000 -48.612411 43.000000
v -43.000000 -48.612411 43.000000
v -43.000000 -48.612411 -43.000000
v -56.000008 -38.612411 55.999992
v 42.999992 -38.612411 56.000000
v 55.999992 -38.612411 56.000008
v 56.000008 -38.612411 -55.999992
v -42.999992 -38.612411 -56.000000
v -55.999992 -38.612411 -56.000008
v -43.000008 -38.612411 56.000000
v 43.000008 -38.612411 -56.000000
v 43.000000 -38.612411 -43.000000
v 43.000000 -38.612411 43.000000
v -43.000000 -38.612411 43.000000
v -43.000000 -38.612411 -43.000000
v -56.000008 31.387589 55.999992
v 56.000008 31.387589 -55.999992
v -43.000008 31.387589 56.000000
v 43.000008 31.387589 -56.000000
v 43.000000 31.387589 -43.000000
v -43.000000 31.387589 43.000000
vn -1.0000 0.0000 0.0000
vn 0.0000 0.0000 1.0000
vn 1.0000 0.0000 0.0000
vn 0.0000 0.0000 -1.0000
vn 0.0000 1.0000 0.0000
vn 0.0000 -1.0000 0.0000
vn 0.0000 0.8152 -0.5792
vn 0.5792 0.8152 0.0000
vn 0.0000 0.8152 0.5792
vn -0.5792 0.8152 0.0000
vn -0.0000 -0.8197 0.5727
vn 0.0000 -0.8197 -0.5727
vn 0.5727 -0.8197 0.0000
vn -0.5727 -0.8197 -0.0000
usemtl INDX_00
s off
f 9//1 2//1 4//1 10//1
f 10//2 4//2 8//2 11//2
f 11//3 8//3 6//3 12//3
f 12//4 6//4 2//4 9//4
f 3//5 7//5 5//5 1//5
f 19//6 18//6 17//6 20//6
f 33//5 32//5 29//5 36//5
f 29//5 30//5 25//5 31//5
f 35//5 31//5 26//5 34//5
f 15//4 13//4 30//4 28//4
f 13//1 14//1 25//1 30//1
f 28//3 27//3 16//3 15//3
f 16//2 27//2 25//2 14//2
f 27//5 28//5 32//5 26//5
f 22//5 21//5 24//5 23//5
usemtl INDX_06
f 5//7 12//7 9//7 1//7
f 7//8 11//8 12//8 5//8
f 3//9 10//9 11//9 7//9
f 1//10 9//10 10//10 3//10
f 16//11 14//11 18//11 19//11
f 17//12 13//12 15//12 20//12
f 15//13 16//13 19//13 20//13
f 14//14 13//14 17//14 18//14
usemtl INDX_05
f 35//3 23//3 24//3 36//3
f 34//4 22//4 23//4 35//4
f 34//1 33//1 21//1 22//1
f 36//2 24//2 21//2 33//2
usemtl 0D000_0
f 31//4 25//4 37//4 39//4
f 31//1 39//1 42//1 35//1
f 32//3 40//3 41//3 33//3
f 32//2 28//2 38//2 40//2
usemtl 0000B_00
f 8//6 4//6 2//6 6//6
