# Blender v2.78 (sub 0) OBJ File: 'more_builds.blend'
# www.blender.org
mtllib goalstan.mtl
o Cube.001_Cube.002
v -42.426407 -5.000000 14.142136
v 42.426407 -5.000000 -14.142136
v 42.426407 -5.000000 14.142136
v -42.426407 -5.000000 -14.142136
v -14.142136 -5.000000 -42.426407
v 14.142136 -5.000000 -42.426407
v -14.142136 -5.000000 42.426407
v -14.142136 -5.000000 -14.142136
v 14.142136 -5.000000 42.426407
v 42.426407 5.000000 -14.142136
v 14.142136 -5.000000 14.142136
v 14.142136 -5.000000 -14.142136
v -42.426407 5.000000 14.142136
v 42.426407 5.000000 14.142136
v -42.426407 5.000000 -14.142136
v -14.142136 -5.000000 14.142136
v 14.142136 5.000000 42.426407
v 14.142136 5.000000 -42.426407
v -14.142136 5.000000 -42.426407
v -14.142136 5.000000 42.426407
v -28.284271 -5.000000 28.284271
v -28.284271 -5.000000 -28.284271
v 28.284271 -5.000000 -28.284271
v 28.284271 -5.000000 28.284271
v -3.548894 -20.000000 -3.548894
v 3.548894 -20.000000 3.548894
v 3.548894 -20.000000 -3.548894
v -3.548894 -20.000000 3.548894
v 0.000000 -10.205147 -6.666983
v -0.000000 -23.539112 6.666983
v -0.000000 -23.539112 -6.666983
v 0.000000 -10.205147 6.666983
vn 0.0000 0.0000 -1.0000
vn -1.0000 0.0000 0.0000
vn 0.0000 0.0000 1.0000
vn 0.0000 -1.0000 0.0000
vn 1.0000 0.0000 0.0000
vn 0.3333 -0.9428 0.0000
vn -0.7071 0.0000 -0.7071
vn -0.7071 0.0000 0.7071
vn -0.3333 -0.9428 0.0000
vn 0.7071 0.0000 0.7071
vn 0.0000 -0.9428 0.3333
vn 0.0000 -0.9428 -0.3333
vn 0.7071 0.0000 -0.7071
usemtl INDX_04
s off
f 11//1 14//1 3//1
f 17//2 11//2 9//2
f 10//3 12//3 2//3
f 13//1 16//1 1//1
f 1//4 16//4 7//4 21//4
f 16//5 20//5 7//5
f 9//4 11//4 3//4 24//4
f 6//4 23//4 2//4 12//4
f 19//5 8//5 5//5
f 12//6 10//6 14//6 11//6
f 8//3 15//3 4//3
f 5//4 8//4 4//4 22//4
f 19//7 5//7 4//7 15//7
f 13//8 1//8 7//8 20//8
f 8//9 16//9 13//9 15//9
f 11//4 16//4 8//4 12//4
f 14//10 17//10 9//10 3//10
f 11//11 17//11 20//11 16//11
f 8//12 19//12 18//12 12//12
f 12//2 18//2 6//2
f 10//13 2//13 6//13 18//13
usemtl 0DMG0_05
f 30//2 32//2 29//2 31//2
usemtl ITEM_52
f 26//4 28//4 25//4 27//4
