# Blender v2.78 (sub 0) OBJ File: 'more_builds.blend'
# www.blender.org
mtllib greece02.mtl
o Cube.032_Cube.038
v -80.096085 -39.845467 20.018116
v -50.096085 -39.845467 20.018116
v -50.096085 -39.845467 -19.981884
v -50.096085 -69.845467 20.018116
v -50.096085 -69.845467 -19.981884
v 19.903915 70.154533 20.018116
v 19.903915 -9.845467 20.018116
v 19.903915 70.154533 -19.981884
v 19.903915 -9.845467 -19.981884
v 44.903915 70.154533 20.018116
v 44.903915 -9.845467 20.018116
v 44.903915 70.154533 -19.981884
v 44.903915 -9.845467 -19.981884
v 19.903915 -39.845467 20.018116
v 19.903915 -39.845467 -19.981884
v 43.903915 -39.845467 -19.981884
v 43.903915 -39.845467 20.018116
v -10.096085 -39.845467 20.018116
v -10.096085 -39.845467 -19.981884
v -10.096085 -68.845467 20.018116
v -10.096085 -68.845467 -19.981884
v 59.903915 -68.845467 -19.981884
v 59.903915 -68.845467 20.018116
v -80.096085 -9.845467 20.018116
v -80.096085 -9.845467 -19.981884
v -80.096085 -39.845467 -19.981884
v 80.096085 -70.154533 -20.018116
v 80.096085 -70.154533 19.981884
vn -0.7071 -0.7071 0.0000
vn 0.0000 0.0000 -1.0000
vn 0.7071 0.7071 0.0000
vn 0.0000 0.0000 1.0000
vn -0.7071 0.7071 0.0000
vn -1.0000 0.0000 0.0000
vn 1.0000 0.0000 0.0000
vn 0.6950 -0.7190 0.0000
vn 0.0000 -1.0000 0.0000
vn -0.0013 -0.0003 -1.0000
vn 0.0000 1.0000 0.0000
vn 0.8637 0.5040 0.0000
vn -0.8756 -0.4831 0.0000
vn 0.0013 0.0003 1.0000
vn -0.0024 -1.0000 0.0000
usemtl INDX_06
s off
f 1//1 26//1 5//1 4//1
f 13//2 16//2 15//2 9//2
f 26//2 25//2 3//2 5//2
f 25//3 24//3 2//3 3//3
f 24//4 1//4 4//4 2//4
f 9//5 19//5 18//5 7//5
f 6//6 8//6 9//6 7//6
f 10//4 6//4 7//4 11//4
f 8//2 12//2 13//2 9//2
f 12//7 10//7 11//7 13//7
f 14//8 20//8 21//8 15//8
f 7//4 14//4 17//4 11//4
f 16//9 17//9 14//9 15//9
f 13//10 27//10 22//10 16//10
f 7//4 18//4 20//4 14//4
f 15//2 21//2 19//2 9//2
f 5//2 3//2 19//2 21//2
f 3//11 2//11 18//11 19//11
f 2//4 4//4 20//4 18//4
f 25//6 26//6 1//6 24//6
f 11//12 28//12 27//12 13//12
f 23//13 17//13 16//13 22//13
f 11//14 17//14 23//14 28//14
usemtl 0D000_0
f 5//15 27//15 28//15 4//15
