# Blender v2.78 (sub 0) OBJ File: 'more_builds.blend'
# www.blender.org
mtllib greece01.mtl
o Cube.031_Cube.018
v 20.000000 70.256668 20.000000
v -20.000000 -10.256668 20.000000
v -20.000000 -10.256668 -20.000000
v 20.000000 -40.256668 20.000000
v -20.000000 -40.256668 -20.000000
v 50.000000 -40.256668 20.000000
v 50.000000 -40.256668 -20.000000
v 50.000000 -69.256668 20.000000
v 50.000000 -69.256668 -20.000000
v 120.000000 70.256668 20.000000
v 120.000000 -10.256668 20.000000
v 120.000000 70.256668 -20.000000
v 120.000000 -10.256668 -20.000000
v 160.000000 70.256668 20.000000
v 160.000000 -10.256668 20.000000
v 160.000000 70.256668 -20.000000
v 160.000000 -10.256668 -20.000000
v 120.000000 -40.256668 20.000000
v 120.000000 -40.256668 -20.000000
v 150.000000 -30.256668 -20.000000
v 150.000000 -30.256668 20.000000
v 90.000000 -40.256668 20.000000
v 90.000000 -40.256668 -20.000000
v 90.000000 -69.256668 20.000000
v 90.000000 -69.256668 -20.000000
v -50.000000 -69.256668 -20.000000
v -50.000000 -69.256668 20.000000
v 160.000000 -70.256668 -20.000000
v 160.000000 -70.256668 20.000000
v -120.000000 70.256668 20.000000
v -120.000000 -10.256668 20.000000
v -120.000000 70.256668 -20.000000
v -120.000000 -10.256668 -20.000000
v -160.000000 70.256668 20.000000
v -160.000000 -10.256668 20.000000
v -160.000000 70.256668 -20.000000
v -160.000000 -10.256668 -20.000000
v -120.000000 -40.256668 20.000000
v -120.000000 -40.256668 -20.000000
v -150.000000 -30.256668 -20.000000
v -150.000000 -30.256668 20.000000
v -90.000000 -40.256668 20.000000
v -90.000000 -40.256668 -20.000000
v -90.000000 -69.256668 20.000000
v -90.000000 -69.256668 -20.000000
v -20.000000 70.256668 20.000000
v -20.000000 70.256668 -20.000000
v 20.000000 -10.256668 20.000000
v 20.000000 70.256668 -20.000000
v 20.000000 -10.256668 -20.000000
v -20.000000 -40.256668 20.000000
v 20.000000 -40.256668 -20.000000
v -50.000000 -40.256668 20.000000
v -50.000000 -40.256668 -20.000000
v -160.000000 -70.256668 -20.000000
v -160.000000 -70.256668 20.000000
vn 1.0000 0.0000 0.0000
vn 0.0000 0.0000 -1.0000
vn -1.0000 0.0000 0.0000
vn 0.0000 0.0000 1.0000
vn 0.0000 -1.0000 0.0000
vn -0.6950 -0.7190 0.0000
vn 0.7071 0.7071 0.0000
vn -0.7071 0.7071 0.0000
vn 0.6950 -0.7190 0.0000
vn 0.3162 -0.9487 0.0000
vn 0.8944 -0.4472 0.0000
vn 0.0000 1.0000 0.0000
vn -0.8944 -0.4472 0.0000
vn -0.3162 -0.9487 0.0000
usemtl INDX_06
s off
f 1//1 48//1 50//1 49//1
f 49//2 50//2 3//2 47//2
f 47//3 3//3 2//3 46//3
f 46//4 2//4 48//4 1//4
f 5//5 52//5 4//5 51//5
f 4//6 52//6 9//6 8//6
f 48//4 2//4 51//4 4//4
f 3//2 50//2 52//2 5//2
f 17//2 20//2 19//2 13//2
f 52//2 50//2 7//2 9//2
f 50//7 48//7 6//7 7//7
f 48//4 4//4 8//4 6//4
f 13//8 23//8 22//8 11//8
f 10//3 12//3 13//3 11//3
f 14//4 10//4 11//4 15//4
f 12//2 16//2 17//2 13//2
f 16//1 14//1 15//1 17//1
f 18//9 24//9 25//9 19//9
f 11//4 18//4 21//4 15//4
f 20//10 21//10 18//10 19//10
f 15//11 21//11 20//11 17//11
f 11//4 22//4 24//4 18//4
f 19//2 25//2 23//2 13//2
f 9//2 7//2 23//2 25//2
f 7//12 6//12 22//12 23//12
f 6//4 8//4 24//4 22//4
f 30//1 31//1 33//1 32//1
f 32//2 33//2 37//2 36//2
f 36//3 37//3 35//3 34//3
f 34//4 35//4 31//4 30//4
f 35//13 37//13 40//13 41//13
f 40//14 39//14 38//14 41//14
f 38//6 39//6 45//6 44//6
f 31//4 35//4 41//4 38//4
f 37//2 33//2 39//2 40//2
f 39//2 33//2 43//2 45//2
f 33//7 31//7 42//7 43//7
f 31//4 38//4 44//4 42//4
f 54//12 43//12 42//12 53//12
f 3//8 54//8 53//8 2//8
f 26//2 45//2 43//2 54//2
f 51//9 27//9 26//9 5//9
f 53//4 42//4 44//4 27//4
f 2//4 53//4 27//4 51//4
f 5//2 26//2 54//2 3//2
usemtl 0D000_0
f 28//5 29//5 56//5 55//5
