# Blender v2.78 (sub 0) OBJ File: 'more_builds.blend'
# www.blender.org
mtllib hiway07.mtl
o Cube.028_Cube.016
v -60.000004 0.000001 60.000000
v -60.000004 -20.000004 60.000000
v -60.000004 0.000001 -60.000000
v -60.000004 -20.000004 -60.000000
v 20.000000 -20.000004 60.000000
v -60.000004 -28.000000 60.000000
v 20.000000 -20.000004 -60.000000
v -60.000004 -28.000000 -60.000000
v 20.000000 -28.000000 60.000000
v 20.000000 -28.000000 -60.000000
vn 0.2425 0.9701 0.0000
vn 0.0000 0.0000 1.0000
vn 0.0000 0.0000 -1.0000
vn 0.0000 -1.0000 0.0000
usemtl INDX_07
s off
f 1//1 5//1 7//1 3//1
usemtl 0DM00_01
f 7//2 4//2 8//2 10//2
f 2//3 5//3 9//3 6//3
usemtl N0000_05
f 3//3 7//3 4//3
f 2//2 5//2 1//2
usemtl INDX_03
f 4//4 7//4 5//4 2//4
