# Blender v2.78 (sub 0) OBJ File: 'more_builds.blend'
# www.blender.org
mtllib hiway01.mtl
o Cube.012_Cube.017
v 60.000000 -19.999985 60.000000
v 60.000000 -19.999985 -60.000000
v -60.000000 -19.999985 60.000000
v -60.000000 -19.999985 -60.000000
v 19.999998 -19.999985 60.000000
v 19.999998 -19.999985 -60.000000
v -19.999998 -19.999985 60.000000
v -19.999998 -19.999985 -60.000000
v 19.999998 45.748985 20.000000
v 19.999998 45.748985 -20.000000
v -19.999998 45.748985 20.000000
v -19.999998 45.748985 -20.000000
v -19.999998 140.428528 -20.000000
v 19.999998 140.428528 -20.000000
v 19.999998 140.428528 20.000000
v -19.999998 140.428528 20.000000
vn 0.0000 0.0000 1.0000
vn -1.0000 0.0000 0.0000
vn 0.0000 0.0000 -1.0000
vn 1.0000 0.0000 0.0000
vn 0.0000 -1.0000 0.0000
vn 0.0000 -0.5197 -0.8543
vn 0.0000 -0.5197 0.8543
usemtl INDX_04
s off
f 11//1 9//1 15//1 16//1
f 12//2 11//2 16//2 13//2
f 10//3 12//3 13//3 14//3
f 9//4 10//4 14//4 15//4
usemtl INDX_00
f 11//5 12//5 10//5 9//5
usemtl 0D000_04
f 7//6 11//6 9//6 5//6
f 6//7 10//7 12//7 8//7
usemtl 0D00B_03
f 2//5 1//5 3//5 4//5
