# Blender v2.78 (sub 0) OBJ File: 'more_builds.blend'
# www.blender.org
mtllib hiway04.mtl
o Cube.008_Cube.041
v 60.000000 0.000000 60.000000
v 60.000000 -20.000000 60.000000
v 60.000000 0.000000 -60.000000
v 60.000000 -20.000000 -60.000000
v -60.000000 0.000000 60.000000
v -60.000000 -20.000000 60.000000
v -60.000000 0.000000 -60.000000
v -60.000000 -20.000000 -60.000000
v 60.000000 -28.000000 60.000000
v 60.000000 -28.000000 -60.000000
v -60.000000 -28.000000 60.000000
v -60.000000 -28.000000 -60.000000
vn 0.0000 0.0000 -1.0000
vn 0.0000 0.0000 1.0000
vn 0.0000 1.0000 0.0000
vn 0.0000 -1.0000 0.0000
usemtl INDX_04
s off
f 3//1 4//1 8//1 7//1
f 5//2 6//2 2//2 1//2
usemtl INDX_07
f 3//3 7//3 5//3 1//3
usemtl 0DM00_01
f 6//1 2//1 9//1 11//1
f 4//2 8//2 12//2 10//2
usemtl 0000B_03
f 8//4 4//4 2//4 6//4
