# Blender v2.78 (sub 0) OBJ File: 'more_builds.blend'
# www.blender.org
mtllib hiway05.mtl
o Cube.018_Cube.028
v 60.000000 0.000000 60.000000
v 60.000000 -20.000000 60.000000
v 60.000000 0.000000 -60.000000
v 60.000000 -20.000000 -60.000000
v -60.000000 0.000000 60.000000
v -60.000000 -20.000000 60.000000
v -60.000000 0.000000 -60.000000
v -60.000000 -20.000000 -60.000000
v 60.000000 -28.000000 60.000000
v 60.000000 -28.000000 -60.000000
v -60.000000 -28.000000 60.000000
v -60.000000 -28.000000 -60.000000
vn 0.0000 0.0000 -1.0000
vn 0.0000 0.0000 1.0000
vn -1.0000 0.0000 0.0000
vn 1.0000 0.0000 0.0000
vn 0.0000 -1.0000 0.0000
usemtl INDX_04
s off
f 3//1 4//1 8//1 7//1
f 5//2 6//2 2//2 1//2
f 1//3 3//3 4//3 2//3
f 7//4 5//4 6//4 8//4
usemtl 0DM00_01
f 8//5 4//5 2//5 6//5
usemtl 0D000_05
f 6//1 2//1 9//1 11//1
f 4//2 8//2 12//2 10//2
