# Blender v2.78 (sub 0) OBJ File: 'satmap08.blend'
# www.blender.org
mtllib longbox.mtl
o Cube_Cube.081
v 500.000000 40.000000 100.000000
v 500.000000 -40.000000 100.000000
v 500.000000 40.000000 -100.000000
v 500.000000 -40.000000 -100.000000
v -500.000000 40.000000 100.000000
v -500.000000 -40.000000 100.000000
v -500.000000 40.000000 -100.000000
v -500.000000 -40.000000 -100.000000
v -167.000000 40.000000 -100.000000
v -167.000000 -40.000000 -100.000000
v -167.000000 40.000000 100.000000
v -167.000000 -40.000000 100.000000
v 167.000000 40.000000 -100.000000
v 167.000000 -40.000000 100.000000
v 167.000000 -40.000000 -100.000000
v 167.000000 40.000000 100.000000
vn 1.0000 0.0000 0.0000
vn 0.0000 0.0000 -1.0000
vn -1.0000 0.0000 0.0000
vn 0.0000 0.0000 1.0000
vn 0.0000 1.0000 0.0000
vn 0.0000 -1.0000 0.0000
usemtl INDX_00
s off
f 1//1 2//1 4//1 3//1
f 9//2 10//2 8//2 7//2
f 7//3 8//3 6//3 5//3
f 16//4 14//4 2//4 1//4
f 9//5 7//5 5//5 11//5
f 15//6 4//6 2//6 14//6
f 8//6 10//6 12//6 6//6
f 13//5 9//5 11//5 16//5
f 5//4 6//4 12//4 11//4
f 13//2 15//2 10//2 9//2
f 3//2 4//2 15//2 13//2
f 3//5 13//5 16//5 1//5
f 11//4 12//4 14//4 16//4
f 10//6 15//6 14//6 12//6
