# Blender v2.78 (sub 0) OBJ File: 'satmapM.blend'
# www.blender.org
mtllib mmap2.mtl
o Cube.001_Cube.000
v 333.669220 133.321548 125.490860
v 334.431000 44.966995 262.411713
v 192.680161 59.479324 55.770920
v 30.804697 21.810333 7.896591
v 39.620003 21.810333 7.896614
v -44.571957 21.810333 7.896606
v -44.571957 48.633072 7.896606
v -36.778778 21.810333 7.896591
v 333.918121 -83.416428 438.768555
v 333.918121 44.966507 315.443451
v 333.970062 -83.436874 315.422485
v 333.918121 44.978775 438.768555
v 264.150909 133.321793 262.411743
v 265.298828 44.966507 262.411713
v 265.298828 -83.424591 315.443451
v 265.298828 133.321548 125.843048
v -338.503204 59.479324 316.011963
v -338.503204 185.478592 316.011963
v -268.831543 59.479324 316.011963
v -268.831543 185.478592 316.011963
v -268.810638 59.479324 126.471085
v -268.810638 185.478592 126.471085
v -276.614563 161.212296 87.970047
v -276.614563 133.321548 87.970047
v 265.108704 58.356491 125.843048
v -272.098450 133.321548 7.896606
v -272.098450 133.321548 44.921295
v -236.871750 133.321548 47.911133
v -197.844391 133.321548 55.790573
v -120.067261 133.321548 40.222198
v -80.540466 133.321548 7.896606
v 75.898643 133.321548 7.896606
v 115.905899 133.321548 40.112366
v 192.680161 133.321548 55.770920
v 231.695389 133.321548 48.107391
v 271.167297 133.321548 87.129303
v -236.871750 133.321548 7.896606
v -197.844391 133.321548 7.896606
v -120.067261 133.321548 7.896606
v 115.905899 133.321548 7.896606
v 192.680161 133.321548 7.896606
v 237.831009 133.321487 8.344543
v -276.614563 59.479324 87.970047
v -236.871750 59.479324 47.911133
v 39.620003 133.321548 7.896614
v -44.571957 133.321548 7.896606
v -197.844391 33.733063 55.790573
v -80.540466 48.633087 7.896606
v 75.898643 48.633087 7.896606
v 192.680161 33.733063 55.770920
v 39.620003 48.633072 7.896614
v -197.844391 59.479324 55.790573
v 231.695389 59.479324 48.107391
v 271.167297 59.479324 87.129303
v 265.108704 -83.424301 125.843018
v -44.571957 -18.949196 7.896606
v 39.620003 -19.007919 7.896614
v -44.571957 -35.013588 7.896606
v 39.620003 -35.013588 7.896614
v -44.571957 -55.344337 7.896606
v 39.620003 -55.344345 7.896614
v -44.571957 -72.989418 -1.127289
v 39.620003 -72.989418 -1.127243
v -44.571957 -93.585861 7.896606
v -197.844391 -84.270981 55.790573
v -120.067261 -84.270981 40.222198
v -80.540466 -93.585861 7.896606
v 75.898643 -93.585861 7.896606
v 115.905899 -84.270981 40.112366
v 192.680161 -84.270981 55.770920
v 39.620003 -93.585861 7.896614
v -44.571957 -108.140976 16.790276
v -75.051308 -108.140976 16.790298
v 70.409485 -108.140976 16.790298
v 39.620003 -108.140976 16.790306
v -2.125998 -180.060471 55.011398
v -50.208298 -180.060471 55.011398
v 45.904030 -180.060471 55.011398
v -37.507156 -216.318314 75.209152
v 33.202888 -216.318314 75.209152
v -75.169441 -147.966171 196.178009
v 33.202888 -258.409180 75.209152
v -25.703693 -289.196594 104.001114
v 21.399424 -289.196594 104.001114
v -23.401436 -386.436218 107.349777
v 19.097166 -386.436218 107.349777
v -17.464874 -405.089233 120.167389
v 13.160604 -405.089233 120.167389
v -2.152136 -483.950745 152.178253
v -244.336472 33.733063 32.151993
v -244.336472 -84.270981 32.151993
v -276.070892 33.733063 47.934540
v -276.070892 -84.270981 47.934540
v -291.613464 33.733063 78.871582
v -291.613464 -84.270981 78.871582
v -268.810638 33.733063 126.471085
v -268.810638 -84.270981 126.471085
v -268.831543 -84.270981 316.011963
v -268.831543 -84.270981 126.691498
v -338.503204 -84.270981 316.011963
v -338.503204 -84.270981 424.194580
v 240.512161 33.733063 31.706970
v 240.512161 -84.270981 31.706970
v 272.111267 33.733063 47.979156
v 272.111267 -84.270981 47.979156
v 287.442535 33.733063 79.284729
v 287.442535 -84.270981 79.284729
v 265.298828 33.733658 125.831818
v 265.298828 -84.270981 125.831879
v 30.804697 33.231339 7.896591
v -36.778778 33.231339 7.896591
v 40.287819 -19.007919 83.501617
v -45.492012 -18.949196 83.501617
v -247.732346 -161.271591 75.951035
v -28.537621 -35.013588 83.501617
v 25.039526 -35.013588 83.501633
v 243.356461 -161.271835 76.046783
v 137.825333 -147.966599 118.867126
v 70.527634 -147.966293 119.944824
v -75.169449 -147.966599 119.944855
v -141.986679 -147.966599 118.997375
v -221.766922 -109.402267 102.541641
v 216.602676 -109.402267 102.519577
v 137.977219 -147.966278 315.727661
v 264.881378 -83.435104 358.460022
v -141.986694 -147.966278 315.727661
v -268.831543 -84.270981 402.086975
v -37.507156 -258.409180 75.209152
v 70.527634 -147.966171 196.178009
v 70.527634 -258.409180 119.944855
v -75.169441 -258.409180 119.944855
v 70.527634 -258.409180 196.178040
v -75.169441 -258.409180 196.178040
v -2.320913 -147.966599 237.298187
v -44.676308 -289.171875 128.811279
v -2.320906 -258.409180 237.298187
v 39.995712 -289.171875 128.186096
v 39.995712 -289.171875 184.997803
v -44.676308 -289.171875 185.622986
v -2.320906 -289.171875 206.577606
v 39.620003 -108.140976 -0.257591
v -44.571957 -108.140976 -0.257591
v -40.922630 -386.429077 128.856873
v 36.242035 -386.429077 128.287109
v 36.758438 -386.429077 183.394989
v -41.439041 -386.429077 183.972382
v -2.320906 -386.429077 202.566040
v -29.219690 -405.087830 134.904907
v 24.573336 -405.087830 134.507721
v 24.933332 -405.087830 172.924530
v -29.579691 -405.087830 173.327026
v -2.309657 -405.087830 186.289032
v -2.125998 -180.060471 -0.257591
v -338.503204 16.860001 419.166382
v -256.743164 59.479324 67.940582
v 251.431351 59.479324 67.618347
v -2.320906 -147.966278 315.727661
v 70.527634 -147.966278 315.727661
v -75.169441 -147.966278 315.727661
v -338.503204 -84.270981 364.576355
v -268.831543 -84.270981 364.576355
v -318.503204 -84.270981 316.011963
v -318.503204 -84.270981 424.194580
v -318.503204 -84.270981 388.858582
v -318.503204 -84.270981 340.294159
v -288.831543 -84.270981 316.011963
v -288.831543 -84.270981 402.086975
v -288.831543 -84.270981 340.294159
v -288.831543 -84.270981 388.858582
v -309.770020 -161.271835 364.576355
v -297.564758 -161.271835 364.576355
v 264.350311 -83.445602 401.476562
v 334.022003 -83.445602 359.494629
v 314.022003 -83.445602 315.401550
v 314.022003 -83.445602 428.643311
v 314.022003 -83.445602 383.776855
v 314.022003 -83.445602 335.212433
v 284.350311 -83.445602 315.401550
v 284.350311 -83.445602 412.448242
v 284.350311 -83.445602 335.212433
v 284.350311 -83.445602 383.776855
v 305.288788 -160.744431 359.494629
v 293.083527 -160.744431 359.494629
v 137.977219 -83.877899 402.012573
v -141.986694 -83.877899 402.012573
v -2.320906 -83.877899 402.012573
v 30.804697 21.810394 83.501602
v 39.753830 21.810394 83.501602
v -45.492008 21.810394 83.501602
v -36.778774 21.810394 83.501602
v 30.804697 33.231400 83.501602
v -36.778774 33.231400 83.501602
v 265.298828 44.966568 315.443420
v 265.298828 33.733902 315.443390
v 265.298828 33.733719 262.411713
v 265.298828 33.733780 315.443420
v 265.298828 44.966446 125.837433
v 265.298828 33.733658 125.837433
v -28.537621 -35.013588 7.896591
v 25.039526 -35.013588 7.896606
vn -0.0002 0.0001 -1.0000
vn 0.0000 -1.0000 -0.0000
vn 1.0000 0.0002 0.0002
vn -0.0014 -0.8399 -0.5427
vn 0.9999 0.0130 0.0084
vn 0.0000 0.0000 -1.0000
vn -1.0000 0.0000 -0.0001
vn -0.9801 0.0000 0.1987
vn 0.1979 0.0000 -0.9802
vn -0.7099 0.0000 -0.7043
vn 0.7030 0.0000 -0.7111
vn 0.9883 -0.0013 0.1522
vn -0.1927 0.0000 -0.9812
vn 1.0000 0.0000 0.0000
vn 0.0000 0.4553 -0.8903
vn -0.1963 0.0000 -0.9805
vn 0.6272 0.0000 -0.7789
vn -0.6331 0.0000 -0.7741
vn 0.1998 0.0000 -0.9798
vn -0.0000 -0.5214 -0.8533
vn -0.0000 -0.4693 -0.8830
vn 0.0000 -0.4866 -0.8736
vn 0.0000 -0.6830 -0.7304
vn 0.0000 -0.0344 -0.9994
vn 0.0000 -0.5663 -0.8242
vn 0.0000 -0.3761 -0.9266
vn -0.4453 0.0000 -0.8954
vn 0.4532 0.0000 -0.8914
vn -0.8936 0.0000 -0.4489
vn -0.9019 0.0000 0.4320
vn 0.8981 0.0000 -0.4398
vn -0.4494 0.0000 -0.8933
vn 0.9030 0.0000 0.4296
vn 0.4578 0.0000 -0.8890
vn -1.0000 0.0000 0.0000
vn 0.9999 0.0000 0.0122
vn 0.0000 1.0000 0.0000
vn -0.7316 0.6817 0.0032
vn 0.6977 0.7164 0.0042
vn -0.8017 -0.4416 -0.4028
vn -0.7967 -0.4685 0.3817
vn -0.3999 -0.4398 -0.8041
vn 0.4009 -0.4662 -0.7886
vn -0.3969 -0.4690 -0.7890
vn 0.4103 -0.4436 -0.7968
vn 0.8047 -0.4441 -0.3941
vn 0.7962 -0.4718 0.3788
vn 0.2240 -0.8199 -0.5268
vn -0.2271 -0.8192 -0.5266
vn -0.1848 -0.7691 -0.6118
vn 0.1877 -0.7681 -0.6122
vn 0.8470 -0.5066 0.1611
vn -0.8435 -0.5143 0.1552
vn -0.9045 -0.3992 -0.1504
vn 0.9065 -0.3953 -0.1484
vn 0.4522 -0.8919 -0.0004
vn -0.1444 -0.5079 0.8492
vn 0.4452 -0.8948 0.0346
vn 0.0031 -1.0000 0.0000
vn -0.4488 -0.8937 0.0000
vn -0.4448 -0.8934 0.0628
vn 0.1565 -0.5115 0.8449
vn -0.3728 -0.7449 0.5533
vn 0.3780 -0.7432 0.5520
vn -0.9041 -0.4002 -0.1498
vn 0.9054 -0.3986 -0.1463
vn 0.7678 -0.0000 -0.6406
vn -0.7650 0.0000 -0.6440
vn 0.4916 0.0000 0.8708
vn -0.4916 0.0000 0.8708
vn 0.3670 -0.6411 0.6740
vn -0.7102 -0.7040 0.0000
vn 0.7098 -0.7044 0.0000
vn -0.3658 -0.6367 0.6788
vn -0.5710 -0.6767 -0.4648
vn 0.5735 -0.6743 -0.4651
vn 0.7834 -0.0354 -0.6205
vn -0.4364 -0.0334 0.8991
vn 0.9993 -0.0359 -0.0046
vn -0.7850 -0.0352 -0.6185
vn -0.9993 -0.0359 -0.0046
vn 0.4474 -0.0332 0.8937
vn -0.6417 -0.5654 -0.5182
vn -0.8460 -0.5332 -0.0079
vn -0.3372 -0.6190 0.7093
vn 0.8466 -0.5321 -0.0079
vn 0.6405 -0.5667 -0.5183
vn 0.3468 -0.6165 0.7069
vn -0.7246 -0.3753 -0.5780
vn -0.9452 -0.3264 -0.0089
vn 0.7253 -0.3751 -0.5772
vn 0.9465 -0.3227 -0.0089
vn 0.4107 -0.3613 0.8372
vn -0.3997 -0.3646 0.8410
vn 0.8649 -0.5020 0.0000
vn -0.8612 -0.5083 0.0000
vn 0.0000 -0.0247 -0.9997
vn 0.3365 0.2306 -0.9130
vn -0.9211 0.2105 0.3274
vn -0.6196 0.6564 -0.4305
vn -0.4307 0.6552 -0.6207
vn -0.3336 0.2337 -0.9133
vn 0.4247 0.6697 -0.6092
vn 0.6136 0.6664 -0.4235
vn 0.9177 0.2521 0.3069
vn 0.7417 -0.2768 0.6109
vn 0.0000 -0.3007 -0.9537
vn -0.7417 -0.2768 0.6109
vn 0.7417 -0.2768 -0.6109
vn 0.0000 -0.3008 0.9537
vn -0.7417 -0.2768 -0.6109
vn -0.0009 -1.0000 -0.0002
vn 0.0003 -1.0000 -0.0001
vn -0.7632 -0.2706 0.5868
vn 0.0000 -0.2997 -0.9540
vn 0.7419 -0.2758 0.6111
vn -0.7367 -0.2770 -0.6169
vn 0.7419 -0.2758 -0.6111
vn 0.0008 -1.0000 0.0002
vn -0.0001 -1.0000 -0.0001
vn 0.0000 -0.2997 0.9540
vn 0.0000 -0.8028 0.5963
vn 0.0034 -1.0000 -0.0002
vn -1.0000 -0.0065 0.0053
usemtl INDX_00
s off
f 193//1 10//1 11//1 15//1
f 2//2 10//2 193//2 14//2
f 10//3 12//3 9//3 11//3
f 1//4 2//4 14//4 16//4
f 14//5 16//5 13//5
f 17//6 18//6 20//6 19//6
f 19//7 20//7 22//7 21//7
f 22//8 23//8 43//8 21//8
f 24//2 27//2 28//2
f 30//2 29//2 38//2 39//2
f 28//2 27//2 26//2 37//2
f 34//2 33//2 40//2 41//2
f 31//2 30//2 39//2
f 35//2 34//2 41//2 42//2
f 29//2 28//2 37//2 38//2
f 33//2 32//2 40//2
f 46//6 7//6 48//6 31//6
f 32//6 49//6 51//6 45//6
f 45//6 51//6 7//6 46//6
f 28//9 29//9 52//9 44//9
f 28//10 44//10 43//10 24//10
f 36//11 54//11 53//11 35//11
f 36//12 16//12 25//12 54//12
f 34//13 35//13 53//13 3//13
f 14//14 193//14 196//14 195//14
f 14//14 195//14 198//14 197//14
f 59//6 61//6 60//6 58//6
f 108//14 194//14 15//14 109//14
f 61//15 63//15 62//15 60//15
f 30//16 66//16 65//16 29//16
f 33//17 69//17 68//17 32//17
f 31//18 67//18 66//18 30//18
f 34//19 70//19 69//19 33//19
f 64//20 72//20 73//20 67//20
f 68//20 74//20 75//20 71//20
f 72//21 76//21 77//21 73//21
f 74//21 78//21 76//21 75//21
f 80//22 79//22 77//22 78//22
f 79//6 80//6 82//6 128//6
f 128//23 82//23 84//23 83//23
f 83//24 84//24 86//24 85//24
f 85//25 86//25 88//25 87//25
f 87//26 88//26 89//26
f 91//27 93//27 92//27 90//27
f 65//28 91//28 90//28 47//28
f 92//29 93//29 95//29 94//29
f 95//30 97//30 96//30 94//30
f 97//7 98//7 19//7 21//7
f 17//6 19//6 98//6 100//6
f 107//31 105//31 104//31 106//31
f 50//32 102//32 103//32 70//32
f 109//33 107//33 106//33 108//33
f 102//34 104//34 105//34 103//34
f 110//35 4//35 187//35 191//35
f 6//36 189//36 113//36 56//36
f 188//6 112//6 113//6 189//6
f 111//2 110//2 191//2 192//2
f 199//37 115//37 116//37 200//37
f 200//38 116//38 112//38 57//38
f 56//39 113//39 115//39 199//39
f 191//6 187//6 190//6 192//6
f 95//40 93//40 114//40
f 97//41 95//41 114//41
f 93//42 91//42 114//42
f 91//43 65//43 114//43
f 70//44 103//44 117//44
f 103//45 105//45 117//45
f 105//46 107//46 117//46
f 107//47 109//47 117//47
f 68//48 69//48 118//48 119//48
f 66//49 67//49 120//49 121//49
f 121//50 122//50 65//50 66//50
f 123//51 118//51 69//51 70//51
f 122//52 114//52 65//52
f 70//53 117//53 123//53
f 77//54 120//54 67//54
f 119//55 78//55 68//55
f 55//56 15//56 124//56 118//56
f 117//57 109//57 123//57
f 123//58 109//58 118//58
f 98//59 185//59 127//59
f 98//60 99//60 121//60 126//60
f 121//61 99//61 122//61
f 114//62 122//62 97//62
f 185//63 98//63 126//63
f 184//64 124//64 15//64
f 77//65 79//65 120//65
f 78//66 119//66 80//66
f 80//67 119//67 130//67 82//67
f 120//68 79//68 128//68 131//68
f 120//35 131//35 133//35 81//35
f 130//14 119//14 129//14 132//14
f 132//69 129//69 134//69 136//69
f 81//70 133//70 136//70 134//70
f 132//71 136//71 140//71 138//71
f 133//72 131//72 135//72 139//72
f 130//73 132//73 138//73 137//73
f 136//74 133//74 139//74 140//74
f 131//75 128//75 83//75 135//75
f 82//76 130//76 137//76 84//76
f 84//77 137//77 144//77 86//77
f 140//78 139//78 146//78 147//78
f 137//79 138//79 145//79 144//79
f 135//80 83//80 85//80 143//80
f 139//81 135//81 143//81 146//81
f 138//82 140//82 147//82 145//82
f 143//83 85//83 87//83 148//83
f 146//84 143//84 148//84 151//84
f 147//85 146//85 151//85 152//85
f 144//86 145//86 150//86 149//86
f 86//87 144//87 149//87 88//87
f 145//88 147//88 152//88 150//88
f 87//89 89//89 148//89
f 148//90 89//90 151//90
f 89//91 88//91 149//91
f 149//92 150//92 89//92
f 150//93 152//93 89//93
f 152//94 151//94 89//94
f 76//95 153//95 141//95 75//95
f 72//96 142//96 153//96 76//96
f 62//97 63//97 141//97 142//97
f 153//6 142//6 141//6
f 17//35 100//35 101//35 154//35
f 52//98 47//98 90//98 44//98
f 43//99 94//99 96//99 21//99
f 92//100 94//100 43//100 155//100
f 44//101 90//101 92//101 155//101
f 53//102 102//102 50//102 3//102
f 104//103 102//103 53//103 156//103
f 54//104 106//104 104//104 156//104
f 25//105 108//105 106//105 54//105
f 62//35 142//35 64//35 60//35
f 72//35 64//35 142//35
f 63//14 61//14 71//14 141//14
f 75//14 141//14 71//14
f 118//2 124//2 158//2 119//2
f 120//2 159//2 126//2 121//2
f 134//2 129//2 158//2 157//2
f 81//2 134//2 157//2 159//2
f 168//2 166//2 98//2 161//2
f 165//2 160//2 100//2 162//2
f 164//2 169//2 167//2 163//2
f 161//106 169//106 171//106
f 165//107 168//107 171//107 170//107
f 162//2 166//2 168//2 165//2
f 164//108 160//108 170//108
f 168//109 161//109 171//109
f 169//110 164//110 170//110 171//110
f 160//111 165//111 170//111
f 164//2 163//2 101//2 160//2
f 169//2 161//2 127//2 167//2
f 180//112 125//112 15//112 178//112
f 177//113 174//113 11//113 173//113
f 176//2 175//2 179//2 181//2
f 125//114 183//114 181//114
f 177//115 182//115 183//115 180//115
f 174//2 177//2 180//2 178//2
f 176//116 182//116 173//116
f 180//117 183//117 125//117
f 173//118 182//118 177//118
f 176//119 173//119 9//119 175//119
f 181//120 179//120 172//120 125//120
f 181//121 183//121 182//121 176//121
f 124//122 184//122 186//122 157//122
f 126//122 157//122 186//122 185//122
f 15//123 172//123 184//123
f 8//14 111//14 192//14 190//14
f 4//2 5//2 188//2 187//2
f 6//2 8//2 190//2 189//2
f 188//124 5//124 57//124 112//124
f 112//6 116//6 115//6 113//6
f 197//14 16//14 14//14
f 7//6 64//6 67//6 48//6
f 49//6 68//6 71//6 51//6
f 59//6 200//6 57//6
f 199//6 58//6 56//6
