# Blender v2.78 (sub 0) OBJ File: 'satmapM.blend'
# www.blender.org
mtllib mmap1.mtl
o Cube_Cube.001
v 94.731720 36.801956 -140.976715
v 94.870682 37.055862 -213.851242
v -149.155350 133.321548 -140.965714
v -149.191193 48.850235 -140.969788
v -149.117828 49.664078 -211.076202
v 94.731720 70.277786 -140.976715
v -45.492012 48.633087 -140.965698
v 39.753830 48.633087 -140.965698
v 39.753830 70.277786 -140.965698
v 173.120270 133.321548 -140.965714
v 170.569382 70.277786 -140.966019
v 169.875259 71.067947 -207.790466
v 255.998337 133.321548 -109.391891
v 254.624283 64.508316 -109.968872
v 272.839142 63.948380 -165.142487
v 347.882324 133.321548 -76.649948
v 347.360504 63.012650 -76.759468
v 366.578308 63.006485 -126.515785
v 380.517670 133.321548 2.838776
v 380.517670 65.389297 2.838776
v 418.012146 61.643448 2.363785
v 333.669220 133.321548 125.490860
v 333.669220 53.113480 125.490860
v 418.635437 57.691055 114.731476
v 334.431000 44.966995 262.411713
v 417.977112 45.935867 262.459717
v -402.665894 62.657059 -211.179016
v -309.681610 133.321548 -108.312607
v -309.660339 60.352249 -108.320724
v -402.420776 59.772049 -31.825447
v -368.642609 133.321548 -31.046066
v -368.642609 56.314590 -31.046066
v -359.000275 53.722733 88.318207
v -356.832214 133.321365 44.886902
v -356.811584 55.786026 44.887939
v -402.783997 48.823013 136.455475
v -360.971741 184.644485 126.731873
v -360.936279 51.941605 126.730774
v -378.420074 184.651321 167.533722
v -378.420074 51.736526 167.533722
v -508.379089 54.228348 136.504944
v -446.919647 184.651321 181.151825
v -446.919647 51.544937 181.151825
v 39.744774 25.019058 -140.965576
v -45.728912 25.271500 -140.967010
v -45.492012 13.824417 -131.403473
v 39.753830 13.039261 -131.403473
v -45.492012 70.277786 -140.965698
v -36.778786 24.976822 -140.965698
v -36.778778 13.690445 -131.403473
v 30.804697 13.039261 -131.403473
v -149.173264 70.277786 -140.967758
v 30.804689 24.976822 -140.965698
v 30.804697 21.810333 7.896591
v 39.620003 21.810333 7.896614
v -44.571957 21.810333 7.896606
v -44.571957 48.633072 7.896606
v -36.778778 21.810333 7.896591
v 418.319916 67.756302 -145.784714
v 353.263153 65.389297 -61.847275
v 353.263153 133.321548 -61.847275
v 254.451553 68.674942 -110.024414
v 273.195374 69.027420 -165.707993
v 347.403748 68.713760 -76.750252
v 366.514801 68.615189 -127.327881
v 38.544800 24.976822 -210.820847
v -45.796066 24.976822 -210.820847
v 333.918121 -83.416428 438.768555
v 333.918121 44.966507 315.443451
v 417.577942 44.083023 315.459442
v 333.918121 44.978775 438.768555
v 418.089569 45.873611 438.750793
v 265.298828 133.321548 125.843048
v 134.236603 93.852432 -261.307343
v 288.348267 90.743790 -208.419785
v 132.731857 95.814224 -348.088257
v 231.263840 90.732071 -333.044617
v 135.398743 92.231766 -434.143829
v 185.623322 90.732071 -391.794189
v 286.899261 193.770523 -197.008469
v 311.790558 193.917557 -270.371918
v 339.719025 194.554703 -400.636353
v 225.009857 195.358109 -537.922241
v 277.494476 194.554703 -486.736298
v 298.004852 195.358109 -572.930176
v 335.528290 194.554703 -531.366943
v 389.552155 194.554703 -464.555389
v 448.181305 194.554703 -563.125366
v 513.351440 194.554703 -477.705963
v 388.565521 193.772964 -166.492691
v 406.176849 194.554703 -340.406677
v 513.351440 194.554703 -375.879089
v 431.763275 193.917130 -236.652908
v 279.528107 164.371231 -176.469269
v 371.585388 164.833328 -138.730011
v 425.816956 164.848953 -241.203629
v 227.609512 169.450333 -535.030579
v 297.795807 169.692886 -569.473083
v 444.185852 166.873489 -562.948730
v 513.078003 165.363907 -477.451416
v 513.624878 166.837234 -376.133606
v 266.491974 160.763931 -138.994354
v 358.428619 160.736771 -103.971390
v 265.997040 145.107437 -138.681152
v 358.152222 145.125992 -103.576416
v 256.054443 144.178604 -109.533623
v 347.968201 144.204239 -76.631180
v 263.583618 68.762039 -137.153900
v 356.794525 68.722427 -101.645142
v 572.960144 101.686478 -327.256165
v 484.812592 106.355850 -608.167969
v 572.960144 97.468948 -508.538239
v 207.187653 101.874344 -589.843018
v 282.413177 102.529800 -625.234619
v 127.871964 67.864151 -434.770203
v 125.798935 17.801178 -488.073120
v 82.029617 63.494156 -260.479980
v 83.486626 61.033829 -334.777557
v 87.516655 56.483414 -420.004761
v 59.507782 29.370804 -449.215881
v 47.853317 36.885513 -271.888977
v -38.190571 36.658218 -269.475464
v 42.800400 26.076370 -321.605316
v -42.330933 26.076370 -334.023743
v 21.602213 29.370804 -449.638550
v -29.536125 84.564529 -400.178040
v 1.279398 76.130142 -452.578613
v 15.404306 17.801178 -561.256042
v -7.247516 72.118179 -538.094788
v -34.916733 17.801178 -606.445740
v -64.629181 76.121841 -585.599854
v -159.346222 8.461624 -624.923584
v -159.382812 71.607498 -595.505249
v -371.973999 -14.456772 -586.974304
v -374.036194 57.581253 -558.328430
v -522.983459 -14.903854 -508.347717
v -512.424194 50.827469 -486.744507
v -591.145813 -10.326157 -394.754089
v -567.202209 49.334122 -390.892395
v -609.489258 10.055496 -325.861755
v -587.307983 74.375565 -324.728058
v -608.590271 9.740738 -154.780472
v -587.477539 68.970413 -153.349548
v -554.027588 1.083878 4.652908
v -531.744629 64.468338 5.323822
v -531.859619 -19.026901 135.504913
v -403.861877 58.962051 -380.616577
v -367.716003 69.430618 -468.422913
v -187.731995 87.879227 -416.825867
v -371.745667 79.842667 -333.937805
v -145.200119 36.175064 -269.339630
v -173.357056 21.721695 -336.152100
v -245.060059 77.635025 -299.888367
v -229.418488 133.321548 -124.639160
v -229.471054 53.394852 -124.625648
v -275.696777 53.871048 -209.888565
v 206.905487 17.801178 -578.679565
v 83.238647 17.801178 -659.148315
v 278.962311 17.801178 -659.148315
v 148.088516 15.423843 -659.148315
v -29.375525 17.801178 -659.148315
v -166.475845 9.701859 -659.148315
v -388.586487 -15.138290 -645.318970
v -545.538208 -16.873581 -562.471436
v -638.524231 -12.305954 -405.524109
v -638.524231 8.585464 -333.551788
v -638.524231 -70.731613 -155.142746
v -638.524231 -78.800156 11.453278
v -638.524231 -97.867172 148.162354
v 603.550720 23.816055 -327.255859
v 486.822479 22.183182 -643.984985
v 603.550720 19.309036 -508.532562
v 573.536499 52.486343 -155.879791
v 603.550720 -28.966415 -146.873962
v 571.380981 45.292923 -5.410858
v 603.550720 -41.356064 3.669998
v 575.623352 24.604507 154.756836
v 603.550720 -58.408737 163.481079
v 563.558105 15.624649 292.272064
v 592.959717 -78.959824 291.192261
v 522.569580 22.744522 414.001465
v 540.414795 -76.835434 413.592285
v 427.397888 -77.201767 438.750793
v 495.361786 106.371780 -228.267700
v 546.130554 -76.350998 353.002686
v 527.148254 20.029434 339.365265
v -478.467896 59.479324 238.296844
v -492.789764 -19.210434 244.444183
v -599.533752 -97.802780 313.834351
v -537.298096 59.479324 278.693787
v -558.404114 -16.081650 289.675751
v -545.516479 -97.960617 400.945526
v -472.367096 59.479324 371.007294
v -497.171875 -19.338120 378.117523
v -415.988464 59.479324 331.450439
v -481.487762 -96.778305 356.369781
v -436.135193 -18.938339 335.223267
v -338.503204 59.479324 316.011963
v -377.245819 -19.157700 324.674408
v -377.245819 59.479324 323.731201
v -531.152344 -97.616257 266.868134
v -508.379089 185.478592 136.504944
v -478.467896 185.689957 238.296844
v -415.988464 185.401993 331.450439
v -338.503204 185.478592 316.011963
v -268.831543 185.478592 316.011963
v -268.831543 185.478592 167.533722
v -268.810638 185.478592 126.471085
v -359.028748 160.390335 88.316772
v -276.614563 161.212296 87.970047
v -359.021545 133.321609 88.317139
v -276.614563 133.321548 87.970047
v -362.212036 133.321548 7.896591
v -272.098450 133.321548 7.896606
v -272.098450 133.321548 44.921295
v 231.695389 133.321548 48.107391
v 271.167297 133.321548 87.129303
v 192.680161 133.321548 7.896606
v 237.831009 133.321487 8.344543
v -149.155350 133.321548 7.896606
v -149.155350 133.321548 -31.046074
v -2.320906 133.321548 7.896606
v 39.620003 133.321548 7.896614
v -44.571957 133.321548 7.896606
v 39.620003 48.633072 7.896614
v -338.503204 -84.270981 424.194580
v 30.804697 33.231339 7.896591
v -36.778778 33.231339 7.896591
v -436.135193 -97.259811 335.223267
v -377.245819 -84.271011 324.674408
v -338.503204 16.860001 419.166382
v -377.245819 16.860001 419.166382
v -377.245819 -84.271011 419.166382
v -378.420074 185.689957 242.351929
v -268.831543 185.478592 242.351929
vn 0.1993 -0.0000 0.9799
vn 0.0002 0.0000 1.0000
vn 0.4087 -0.9126 -0.0084
vn -0.0336 -0.9991 -0.0244
vn -0.9215 0.0000 0.3883
vn 0.0284 -0.9972 -0.0697
vn -0.9342 0.0000 -0.3568
vn 0.0005 -0.9976 -0.0688
vn 0.0005 -0.9998 -0.0175
vn -1.0000 0.0000 0.0056
vn 0.7949 0.0001 0.6067
vn -0.0729 -0.9966 0.0392
vn -0.0534 -0.9964 -0.0664
vn -0.0197 -0.9993 -0.0315
vn 0.9987 0.0003 0.0503
vn 0.9881 0.0001 -0.1538
vn 0.1904 -0.9810 -0.0365
vn -0.0273 -0.9991 0.0339
vn 0.0812 -0.9963 0.0298
vn 0.9193 0.0001 0.3935
vn 0.1950 0.0000 0.9808
vn 0.0015 -0.6245 -0.7810
vn -0.0081 -0.9983 0.0577
vn -1.0000 0.0010 0.0064
vn -0.0156 -0.6438 -0.7650
vn -0.0001 0.0000 1.0000
vn 1.0000 -0.0004 -0.0014
vn 0.0000 -1.0000 0.0000
vn -0.9993 0.0101 0.0369
vn -0.0000 -0.9980 0.0628
vn 0.0000 1.0000 0.0000
vn 1.0000 0.0001 0.0009
vn 0.0000 -0.9985 0.0554
vn 1.0000 0.0000 -0.0000
vn -1.0000 -0.0000 0.0000
vn -0.3371 -0.0000 0.9415
vn -0.0133 -0.9999 0.0006
vn -0.0323 -0.9995 -0.0003
vn 0.1271 -0.9899 0.0626
vn -0.3508 0.0063 0.9364
vn -0.0644 -0.9979 -0.0111
vn -0.3344 -0.1388 -0.9322
vn -0.9350 0.0032 0.3548
vn 0.3767 -0.1286 -0.9174
vn 0.2095 -0.9778 -0.0030
vn -0.2273 -0.9738 -0.0036
vn -0.0015 -1.0000 0.0024
vn -0.0000 -0.0001 1.0000
vn 0.0000 0.0000 1.0000
vn 0.0001 -1.0000 0.0073
vn 0.1418 -0.8688 -0.4745
vn -0.0606 -0.9973 0.0426
vn 0.5032 -0.7787 -0.3747
vn 0.4007 -0.7926 -0.4595
vn 0.9733 -0.0961 0.2082
vn 0.5761 -0.7736 -0.2638
vn -0.0066 -0.9999 -0.0109
vn -0.0043 -0.9999 -0.0154
vn 0.0022 -1.0000 -0.0024
vn 0.0005 -1.0000 -0.0018
vn -0.0000 -1.0000 -0.0061
vn 0.2460 -0.6770 -0.6936
vn -0.8616 0.1460 -0.4861
vn -1.0000 0.0000 0.0027
vn -0.7850 0.0636 0.6163
vn -0.0540 0.0721 0.9959
vn 0.4325 0.1299 0.8922
vn -0.8442 0.1284 -0.5204
vn 0.0388 -0.9950 -0.0921
vn 0.3558 -0.0299 -0.9341
vn 0.0110 -0.9995 -0.0290
vn 0.3363 -0.0075 -0.9417
vn -0.9355 0.0076 -0.3531
vn 0.9470 -0.0229 0.3206
vn 0.0010 1.0000 0.0027
vn 0.9461 -0.0249 0.3230
vn -0.9354 0.0075 -0.3535
vn 0.9463 -0.0224 0.3226
vn 0.9539 -0.0298 0.2987
vn -0.8838 -0.0089 -0.4677
vn -0.5629 -0.7009 0.4381
vn -0.7457 -0.6662 0.0149
vn 0.3324 -0.6495 0.6838
vn -0.0508 -0.6257 0.7784
vn 0.7541 -0.0444 0.6553
vn 0.8289 -0.4562 0.3239
vn 0.3944 -0.7346 -0.5520
vn 0.5405 -0.8413 0.0024
vn 0.5978 -0.7993 0.0613
vn 0.3747 -0.1393 0.9166
vn 0.4142 -0.6714 0.6145
vn -0.0014 -0.9811 -0.1935
vn -0.0095 -0.9827 0.1847
vn 0.6348 -0.7700 0.0640
vn 0.6250 -0.7785 -0.0565
vn 0.6600 -0.7482 0.0687
vn 0.0027 -0.9997 -0.0262
vn -0.8190 -0.3547 -0.4510
vn -0.9083 -0.4062 0.1000
vn -0.5700 -0.5151 0.6401
vn -0.0928 -0.4000 0.9118
vn 0.1920 -0.3848 0.9028
vn 0.4411 -0.3314 0.8340
vn 0.8144 -0.3221 0.4828
vn 0.8692 -0.3379 0.3611
vn 0.9438 -0.3306 -0.0075
vn 0.8940 -0.3109 -0.3228
vn 0.9303 -0.3092 -0.1975
vn -0.1357 -0.9885 0.0673
vn -0.0024 -0.9977 0.0678
vn 0.0775 -0.9909 0.1101
vn 0.0493 -0.9987 0.0127
vn 0.0447 -0.7613 -0.6468
vn -0.0419 -0.9991 0.0042
vn 0.1994 -0.0001 0.9799
vn -0.0156 -0.9810 -0.1933
vn -0.0152 -0.9968 -0.0782
vn -0.0396 -0.9991 -0.0153
vn -0.0100 -0.9989 -0.0467
vn -0.0631 -0.9899 0.1270
vn 0.0577 -0.9982 0.0174
vn 0.4582 -0.8849 0.0831
vn 0.0359 -0.9270 0.3734
vn 0.0184 -0.9830 0.1828
vn -0.2263 -0.9493 -0.2184
vn -0.6808 -0.6193 -0.3912
vn -0.0303 -0.9742 0.2235
vn 0.0047 -0.9742 0.2258
vn -0.3781 -0.8902 -0.2543
vn 0.1901 -0.8038 0.5637
vn 0.1525 -0.8411 -0.5189
vn 0.4006 -0.3545 0.8449
vn 0.0000 -0.9996 0.0295
vn 0.7423 0.0858 0.6646
vn 0.8107 -0.5704 -0.1321
vn 0.0676 -0.9976 -0.0155
vn 0.0162 -0.9989 0.0434
vn 0.7999 -0.5774 -0.1635
vn 0.1053 -0.9939 -0.0330
vn -0.0239 -0.9602 0.2782
vn 0.6203 -0.7671 -0.1637
vn 0.0164 -0.9997 0.0178
vn -0.0649 -0.3803 0.9226
vn -0.9310 -0.3650 0.0088
vn -0.7299 -0.2838 0.6219
vn -0.1170 -0.8530 -0.5086
vn -0.3459 -0.6439 -0.6824
vn -0.5420 -0.7523 -0.3746
vn -0.9278 -0.3587 -0.1025
vn -0.9364 -0.3496 -0.0294
vn -0.9414 -0.3363 -0.0272
vn -0.9794 -0.1889 -0.0714
vn -0.2261 -0.0258 -0.9738
vn -0.0002 -0.0000 -1.0000
vn -0.1044 -0.9935 -0.0451
vn -0.1480 -0.9852 -0.0864
vn -0.7794 -0.2356 -0.5805
vn -0.9439 -0.3096 -0.1151
vn -0.1985 -0.9789 -0.0480
vn -0.2152 -0.9764 0.0178
vn -0.1868 -0.9792 -0.0795
vn 0.5661 -0.7986 -0.2044
vn 0.9243 -0.2400 -0.2968
vn 0.5658 -0.0385 0.8237
vn 0.5657 -0.0413 0.8235
vn 0.7036 -0.5310 -0.4722
vn 0.7806 -0.2966 -0.5502
vn -0.5704 0.1129 -0.8136
vn -0.5716 0.1071 -0.8135
vn -0.1839 -0.0059 -0.9829
vn 0.6490 -0.4851 -0.5860
vn 0.0026 -1.0000 -0.0002
vn -0.1954 0.0000 -0.9807
vn 0.8305 0.0000 -0.5570
vn 0.9594 0.0000 -0.2819
vn -0.5877 0.0000 0.8091
vn -0.0190 -0.9998 0.0077
vn 0.0082 -1.0000 0.0018
vn 0.0099 -0.8461 0.5330
vn 0.0042 0.0000 1.0000
vn -0.1763 0.0000 -0.9843
vn -0.4226 0.0000 -0.9063
vn -0.0393 -0.9182 -0.3941
vn 0.0647 -0.0248 -0.9976
vn 0.0009 -0.9999 0.0160
vn 0.0002 -1.0000 -0.0031
vn -0.0012 -1.0000 -0.0011
vn 0.0028 -1.0000 0.0069
usemtl INDX_00
s off
f 155//1 154//1 28//1 29//1
f 9//2 44//2 1//2 6//2
f 1//3 2//3 12//3 11//3
f 60//4 59//4 21//4 20//4
f 61//5 60//5 20//5 19//5
f 23//6 24//6 26//6 25//6
f 19//7 20//7 23//7 22//7
f 20//8 21//8 24//8 23//8
f 25//9 26//9 70//9 69//9
f 22//10 23//10 25//10
f 29//11 28//11 31//11 32//11
f 156//12 155//12 29//12 27//12
f 36//13 41//13 145//13 30//13
f 27//14 29//14 32//14 30//14
f 34//15 211//15 33//15 35//15
f 32//16 31//16 34//16 35//16
f 38//17 32//17 35//17
f 36//18 40//18 43//18 41//18
f 36//19 38//19 40//19
f 38//20 37//20 39//20 40//20
f 40//21 39//21 42//21 43//21
f 53//22 44//22 47//22 51//22
f 46//23 50//23 58//23 56//23
f 7//24 46//24 56//24 57//24
f 45//25 49//25 50//25 46//25
f 6//26 1//26 11//26
f 47//27 44//27 8//27
f 218//28 220//28 3//28 10//28
f 46//29 7//29 45//29
f 51//30 47//30 55//30 54//30
f 8//31 7//31 57//31 225//31
f 47//32 8//32 225//32 55//32
f 228//33 49//33 53//33 227//33
f 50//34 49//34 228//34 58//34
f 51//35 54//35 227//35 53//35
f 62//36 14//36 17//36 64//36
f 14//37 15//37 18//37 17//37
f 75//38 74//38 76//38 77//38
f 17//39 18//39 59//39 60//39
f 10//40 11//40 14//40 13//40
f 11//41 12//41 15//41 14//41
f 18//42 65//42 59//42
f 60//43 61//43 16//43 17//43
f 15//44 63//44 65//44 18//44
f 2//45 1//45 44//45 66//45
f 5//46 67//46 45//46 4//46
f 66//47 44//47 45//47 67//47
f 4//48 45//48 48//48 52//48
f 48//49 7//49 8//49 9//49
f 69//50 70//50 72//50 71//50
f 15//51 12//51 74//51 75//51
f 77//52 76//52 78//52 79//52
f 77//53 79//53 84//53 82//53
f 79//54 78//54 83//54 84//54
f 75//55 82//55 81//55
f 82//56 75//56 77//56
f 84//57 83//57 85//57 86//57
f 82//28 84//28 86//28 87//28
f 87//28 86//28 88//28 89//28
f 86//58 85//58 88//58
f 87//28 89//28 92//28 91//28
f 82//59 87//59 91//59 81//59
f 80//60 81//60 93//60 90//60
f 92//61 93//61 81//61 91//61
f 80//62 90//62 95//62 94//62
f 95//63 90//63 93//63 96//63
f 92//64 89//64 100//64 101//64
f 89//65 88//65 99//65 100//65
f 88//66 85//66 98//66 99//66
f 85//67 83//67 97//67 98//67
f 92//68 101//68 96//68 93//68
f 94//69 95//69 103//69 102//69
f 102//70 103//70 105//70 104//70
f 104//71 105//71 107//71 106//71
f 106//72 107//72 16//72 13//72
f 107//73 105//73 109//73 64//73
f 104//74 106//74 62//74 108//74
f 65//75 63//75 62//75 64//75
f 94//76 102//76 108//76 63//76
f 109//77 103//77 95//77 65//77
f 15//78 75//78 81//78 80//78
f 15//79 80//79 94//79 63//79
f 65//80 95//80 96//80
f 100//81 99//81 111//81 112//81
f 100//82 112//82 110//82 101//82
f 98//83 97//83 113//83 114//83
f 98//84 114//84 111//84 99//84
f 115//85 97//85 83//85 78//85
f 113//86 97//86 115//86 116//86
f 2//87 117//87 74//87 12//87
f 76//88 74//88 117//88 118//88
f 78//89 76//89 118//89 119//89
f 115//90 78//90 119//90
f 116//91 115//91 119//91
f 66//92 67//92 122//92 121//92
f 121//93 122//93 124//93 123//93
f 117//94 121//94 123//94 118//94
f 121//95 117//95 66//95
f 118//96 123//96 120//96 119//96
f 124//97 125//97 120//97 123//97
f 125//98 124//98 126//98 127//98
f 125//99 127//99 129//99 128//99
f 128//100 129//100 131//100 130//100
f 130//101 131//101 133//101 132//101
f 132//102 133//102 135//102 134//102
f 134//103 135//103 137//103 136//103
f 136//104 137//104 139//104 138//104
f 138//105 139//105 141//105 140//105
f 140//106 141//106 143//106 142//106
f 142//107 143//107 145//107 144//107
f 144//108 145//108 41//108 146//108
f 126//109 131//109 129//109 127//109
f 131//110 126//110 149//110 133//110
f 133//111 149//111 148//111 135//111
f 148//112 149//112 153//112 150//112
f 124//113 152//113 149//113 126//113
f 5//114 4//114 155//114 156//114
f 155//115 4//115 3//115 154//115
f 153//116 156//116 27//116 150//116
f 143//117 141//117 150//117 27//117
f 30//118 145//118 143//118 27//118
f 32//119 38//119 36//119 30//119
f 120//120 125//120 128//120 116//120
f 135//121 147//121 139//121 137//121
f 135//122 148//122 150//122 147//122
f 139//123 147//123 150//123 141//123
f 151//124 152//124 124//124 122//124
f 5//125 122//125 67//125
f 152//126 156//126 153//126 149//126
f 5//127 156//127 152//127 151//127
f 151//128 122//128 5//128
f 173//129 184//129 110//129
f 119//130 120//130 116//130
f 66//131 117//131 2//131
f 116//28 128//28 158//28 157//28
f 114//132 113//132 159//132
f 157//133 158//133 160//133 159//133
f 116//134 157//134 159//134 113//134
f 140//135 142//135 167//135 166//135
f 130//136 132//136 162//136 161//136
f 136//137 138//137 165//137 164//137
f 142//138 144//138 168//138 167//138
f 132//139 134//139 163//139 162//139
f 138//140 140//140 166//140 165//140
f 144//141 146//141 169//141 168//141
f 134//142 136//142 164//142 163//142
f 114//143 159//143 171//143 111//143
f 110//144 112//144 172//144 170//144
f 111//145 171//145 172//145 112//145
f 184//146 173//146 59//146
f 96//147 184//147 59//147 65//147
f 101//148 110//148 184//148 96//148
f 110//149 170//149 174//149 173//149
f 173//150 174//150 176//150 175//150
f 175//151 176//151 178//151 177//151
f 186//152 185//152 182//152 181//152
f 181//153 182//153 183//153 72//153
f 68//154 71//154 72//154 183//154
f 59//155 173//155 175//155 21//155
f 21//156 175//156 177//156 24//156
f 179//157 180//157 185//157 186//157
f 179//158 177//158 178//158 180//158
f 26//159 179//159 186//159 70//159
f 70//160 186//160 181//160 72//160
f 26//161 24//161 177//161 179//161
f 169//162 146//162 188//162
f 146//163 41//163 187//163 188//163
f 188//164 187//164 190//164 191//164
f 188//165 191//165 189//165 201//165
f 189//166 191//166 194//166 192//166
f 191//167 190//167 193//167 194//167
f 195//28 193//28 190//28 187//28
f 192//168 194//168 197//168 196//168
f 194//169 193//169 195//169 197//169
f 197//170 195//170 200//170 199//170
f 201//171 169//171 188//171
f 201//172 189//172 169//172
f 204//173 205//173 198//173 195//173
f 195//174 187//174 203//174 204//174
f 187//175 41//175 202//175 203//175
f 41//176 43//176 42//176 202//176
f 202//177 42//177 203//177
f 37//178 208//178 207//178 39//178
f 208//179 37//179 209//179 210//179
f 210//180 209//180 211//180 212//180
f 215//28 34//28 213//28 214//28
f 212//28 211//28 34//28 215//28
f 73//28 217//28 22//28
f 37//15 38//15 33//15 209//15
f 31//28 28//28 3//28 221//28
f 221//28 220//28 213//28 31//28
f 13//28 219//28 218//28 10//28
f 22//28 217//28 16//28 19//28
f 16//28 217//28 216//28 13//28
f 52//49 11//49 10//49 3//49
f 200//34 232//34 233//34 230//34
f 197//181 199//181 230//181 229//181
f 197//182 229//182 196//182
f 198//183 231//183 232//183 200//183
f 232//184 231//184 226//184 233//184
f 128//28 130//28 161//28 158//28
f 234//185 203//185 42//185 39//185
f 203//186 234//186 205//186 204//186
f 206//187 205//187 234//187 235//187
f 207//188 235//188 234//188 39//188
l 222 223
l 224 222
