# Blender v2.78 (sub 0) OBJ File: 'more_builds.blend'
# www.blender.org
mtllib obstcl1.mtl
o Cube.013_Cube.010
v -95.999992 18.063145 -20.000008
v -95.999992 18.063145 19.999992
v 95.999992 18.063145 -19.999992
v 95.999992 18.063145 20.000008
v -95.999992 52.355923 -100.000015
v 96.000023 52.355923 -99.999985
v -96.000023 52.355923 99.999985
v 95.999992 52.355923 100.000015
v 6.449537 -52.355923 20.000000
v -6.449554 -52.355923 -20.000000
v 78.583466 -52.355923 -19.999992
v -78.583473 18.063145 -20.000008
v -78.583473 -52.355923 19.999992
v -78.583466 18.063145 19.999992
v 78.583466 18.063145 20.000008
v 78.583466 18.063145 -19.999992
v -66.514854 -28.882900 -0.000006
v 6.449541 -52.355923 -20.000000
v -6.449558 -52.355923 20.000000
v -95.999992 -52.355923 -20.000008
v -78.583473 -52.355923 -20.000008
v -6.449560 18.063145 20.000000
v -95.999992 -52.355923 19.999992
v -20.374298 10.006866 -0.000002
v -20.374298 -28.882900 -0.000002
v -6.449556 18.063145 -20.000000
v 95.999992 -52.355923 20.000008
v 78.583466 -52.355923 20.000008
v 6.449545 18.063145 -20.000000
v 95.999992 -52.355923 -19.999992
v 6.449556 18.063145 20.000000
v 78.583466 -41.673321 20.000008
v -66.514854 10.006866 -0.000006
v -78.583473 -41.673321 -20.000008
v -6.449560 -41.673321 20.000000
v 6.449545 -41.673321 -20.000000
v -78.583466 -41.673321 19.999992
v 78.583466 -41.673321 -19.999992
v -6.449556 -41.673321 -20.000000
v 6.449556 -41.673321 20.000000
v 66.514854 10.006866 0.000006
v 20.374298 10.006866 0.000002
v 66.514854 -28.882900 0.000006
v 20.374298 -28.882900 0.000002
vn 0.0000 0.8425 -0.5388
vn 0.0000 0.0000 1.0000
vn -0.8207 0.0000 0.5714
vn -0.8562 0.0000 -0.5167
vn 0.0000 -0.9276 -0.3736
vn 1.0000 -0.0000 0.0000
vn 0.8562 0.0000 0.5167
vn -0.0000 0.8425 0.5388
vn -1.0000 0.0000 0.0000
vn -0.0000 -0.9276 0.3736
vn -0.8207 0.0000 -0.5714
vn 0.0000 0.0000 -1.0000
vn 0.8562 0.0000 -0.5167
vn 0.8207 0.0000 -0.5714
vn 0.0000 -1.0000 0.0000
vn 0.8207 0.0000 0.5714
vn -0.8562 0.0000 0.5167
vn -0.0000 -0.9191 0.3940
vn 0.0000 -0.9191 -0.3940
usemtl INDX_04
s off
f 25//1 39//1 34//1 17//1
f 14//2 2//2 23//2 13//2
f 22//3 24//3 25//3 35//3
f 4//2 15//2 28//2 27//2
f 41//4 16//4 38//4 43//4
f 24//5 33//5 12//5 26//5
f 4//6 3//6 6//6 8//6
f 14//7 37//7 17//7 33//7
f 35//8 25//8 17//8 37//8
f 1//9 20//9 23//9 2//9
f 9//2 28//2 32//2 40//2
f 22//10 14//10 33//10 24//10
f 24//11 26//11 39//11 25//11
f 26//12 29//12 18//12 10//12
f 33//13 17//13 34//13 12//13
f 18//12 36//12 38//12 11//12
f 41//10 15//10 31//10 42//10
f 34//12 39//12 10//12 21//12
f 37//2 13//2 19//2 35//2
f 44//8 40//8 32//8 43//8
f 9//2 31//2 22//2 19//2
f 2//9 7//9 5//9 1//9
f 27//6 30//6 3//6 4//6
f 42//14 44//14 36//14 29//14
f 27//15 23//15 20//15 30//15
f 31//16 40//16 44//16 42//16
f 36//1 44//1 43//1 38//1
f 16//5 41//5 42//5 29//5
f 15//17 41//17 43//17 32//17
f 1//12 12//12 21//12 20//12
f 16//12 3//12 30//12 11//12
usemtl 0000B_04
f 7//18 2//18 4//18 8//18
f 6//19 3//19 1//19 5//19
