# Blender v2.78 (sub 0) OBJ File: 'more_builds.blend'
# www.blender.org
mtllib ovrhng.mtl
o Cube.039_Cube.034
v 20.000000 -12.042084 162.395752
v 20.000000 -52.042084 162.395752
v 20.000000 -12.042084 -162.395752
v 20.000000 -52.042084 -162.395752
v -20.000000 -12.042084 162.395752
v -20.000000 -52.042084 162.395752
v -20.000000 -12.042084 -162.395752
v -20.000000 -52.042084 -162.395752
v 20.000000 -28.652405 202.395752
v 20.000000 -28.652405 -202.395752
v -20.000000 -28.652405 202.395752
v 20.000000 52.042099 -162.395752
v 20.000000 52.042099 162.395752
v -20.000000 -28.652405 -202.395752
v -20.000000 52.042099 -162.395752
v 20.000000 52.042099 202.395752
v 20.000000 52.042099 -202.395752
v -20.000000 52.042099 162.395752
v -20.000000 52.042099 202.395752
v -20.000000 52.042099 -202.395752
v 0.000000 -52.042084 -162.395752
v 0.000000 -52.042084 162.395752
v 0.000000 11.347595 202.395752
v 0.000000 -28.652405 202.395752
v 0.000000 -28.652405 -202.395752
v 0.000000 52.042099 202.395752
v 0.000000 52.042099 -202.395752
v 0.000000 -12.042084 -162.395752
v 0.000000 -12.042084 162.395752
v 0.000000 52.042099 -162.395752
v 0.000000 52.042099 162.395752
v -20.000000 -32.042084 -162.395752
v -20.000000 -32.042084 162.395752
v 0.000000 -8.652405 202.395752
v -20.000000 -40.493217 182.146118
v -20.000000 52.042099 182.146118
v 0.000000 -40.493217 182.146118
v -20.000000 -40.347244 -182.395752
v 20.000000 -32.042084 -162.395752
v 20.000000 -32.042084 162.395752
v -20.000000 52.042099 -182.395752
v 20.000000 -40.493217 182.146118
v 20.000000 52.042099 182.146118
v 20.000000 -40.347244 -182.395752
v 20.000000 52.042099 -182.395752
vn -1.0000 0.0000 0.0000
vn 0.0000 1.0000 0.0000
vn 1.0000 0.0000 0.0000
vn 0.0000 0.0000 1.0000
vn 0.0000 0.0000 -1.0000
vn 0.0000 -1.0000 0.0000
vn 0.0000 -0.8632 -0.5048
vn 0.0000 -0.8632 0.5048
usemtl INDX_00
s off
f 32//1 8//1 6//1 33//1
f 28//2 7//2 5//2 29//2
f 28//2 29//2 1//2 3//2
f 42//3 2//3 13//3 43//3
f 15//1 41//1 38//1 8//1
f 3//4 12//4 30//4 28//4
f 29//5 5//5 18//5 31//5
f 29//5 31//5 13//5 1//5
f 8//6 21//6 22//6 6//6
f 7//4 28//4 30//4 15//4
f 4//6 2//6 22//6 21//6
f 39//3 40//3 2//3 4//3
f 3//3 1//3 40//3 39//3
f 7//1 32//1 33//1 5//1
f 35//1 36//1 18//1 6//1
f 12//3 4//3 44//3 45//3
usemtl INDX_05
f 10//5 25//5 27//5 17//5
f 4//7 21//7 25//7 10//7
f 22//8 2//8 9//8 24//8
f 11//4 24//4 26//4 19//4
f 9//4 16//4 26//4 24//4
f 14//5 20//5 27//5 25//5
f 19//1 36//1 35//1 11//1
f 16//3 9//3 42//3 43//3
f 44//3 10//3 17//3 45//3
f 38//1 41//1 20//1 14//1
f 8//7 14//7 25//7 21//7
f 22//8 24//8 11//8 6//8
l 23 26
l 34 23
l 37 24
l 24 34
l 22 37
