# Blender v2.78 (sub 0) OBJ File: 'more_builds.blend'
# www.blender.org
mtllib pier1.mtl
o Plane.004_Plane.005
v -194.418213 -98.784012 47.089325
v 194.418060 -98.784012 -47.089325
v 194.581207 -98.784012 46.410492
v -194.581360 -98.784012 -46.410492
v -145.168213 -98.784012 47.003265
v -145.331421 -98.784012 -46.496307
v 158.331299 -98.784012 46.473663
v 158.168091 -98.784012 -47.025970
v 19.753899 -98.784012 46.715454
v 19.590736 -98.784012 -46.784119
v -194.336548 -91.783981 93.839264
v -194.662964 -91.783981 -93.160431
v 158.086578 -91.783951 -93.775848
v 194.336456 -91.783981 -93.839264
v 158.413055 -91.783920 93.224030
v 194.662964 -91.783951 93.160675
v 19.835526 -91.783981 93.465515
v -145.086670 -91.783981 93.753326
v 19.509171 -91.783981 -93.534119
v -194.336548 -120.121384 93.839264
v 158.412872 -120.121384 93.223724
v 194.662811 -120.121384 93.160431
v 19.835526 -120.121384 93.465515
v -145.413025 -91.783981 -93.246399
v -145.086670 -120.121384 93.753326
v -194.662964 -120.121384 -93.160431
v 158.086517 -120.121384 -93.776031
v 194.336456 -120.121384 -93.839264
v 19.509171 -120.121384 -93.534119
v -145.413025 -120.121384 -93.246399
v -194.336548 -73.784012 93.839264
v 194.662964 -73.783981 93.160675
v -194.418213 -73.784012 47.089325
v 194.581299 -73.783981 46.410675
v -194.662964 -73.784012 -93.160431
v 194.336578 -73.783981 -93.839081
v 194.418121 -73.783981 -47.089203
v -194.581360 -73.784012 -46.410492
v 155.254822 75.121353 -93.775848
v 154.928467 75.121353 93.223907
v 154.928467 -73.878647 93.224030
v 155.254822 -73.878647 -93.775848
v 154.928467 46.121353 93.223907
v 155.254822 46.121353 -93.775848
v -22.352890 -120.121384 -93.461090
v -22.026505 -91.783981 93.538513
v -22.026505 -120.121384 93.538513
v -22.352890 -91.783981 -93.461090
v -22.271294 -98.784012 -46.711060
v -22.108101 -98.784012 46.788513
v -194.418213 -120.121384 47.089325
v 194.418060 -120.121384 -47.089325
v 194.581207 -120.121384 46.410492
v -194.581360 -120.121384 -46.410492
v -145.168213 -120.121384 47.003265
v -145.331421 -120.121384 -46.496307
v 158.331299 -120.121384 46.473663
v 158.168091 -120.121384 -47.025970
v 19.753899 -120.121384 46.715454
v 19.590736 -120.121384 -46.784119
v -22.271294 -120.121384 -46.711060
v -22.108101 -120.121384 46.788513
v 19.835526 -73.783981 93.465515
v 19.509171 -73.783981 -93.534119
v -22.026505 -73.783981 93.538513
v -22.352890 -73.783981 -93.461090
v 19.835526 -52.783981 93.465515
v 19.509171 -52.783981 -93.534119
v -22.026505 -52.783981 93.538513
v -22.352890 -52.783981 -93.461090
v 155.254822 120.121353 -93.775848
v 154.928467 120.121353 93.223907
v 194.418121 120.121353 46.410675
v 194.662964 120.121384 93.160675
v 194.336548 120.121384 -47.089203
v 194.336639 120.121384 -93.839081
v 0.163208 -73.783997 93.499969
v -0.163193 -73.783997 -93.499756
v -0.081650 -98.784012 -46.749908
v 0.081497 -98.784012 46.749908
v 0.163208 -91.783966 93.499969
v -0.163254 -91.783981 -93.499847
vn 0.0003 -0.9890 0.1481
vn -0.0003 -0.9890 -0.1481
vn 0.0000 -1.0000 0.0000
vn 0.0017 -0.0000 1.0000
vn -0.0017 0.0000 -1.0000
vn 1.0000 -0.0000 -0.0017
vn -1.0000 0.0000 0.0017
vn -0.0018 -0.0000 -1.0000
vn 0.0018 0.0000 1.0000
vn 1.0000 0.0004 -0.0035
vn 0.0016 0.0000 1.0000
vn 1.0000 0.0002 -0.0009
vn -0.0016 0.0000 -1.0000
vn -0.0000 1.0000 0.0000
usemtl INDX_00
s off
f 50//1 46//1 18//1 5//1
f 19//2 13//2 8//2 10//2
f 49//2 6//2 24//2 48//2
f 17//1 9//1 7//1 15//1
f 27//3 28//3 52//3 58//3
f 45//3 29//3 60//3 61//3
f 47//3 62//3 59//3 23//3
f 30//3 56//3 54//3 26//3
f 25//3 20//3 51//3 55//3
usemtl INDX_04
f 15//4 21//4 22//4 16//4
f 11//4 20//4 25//4 18//4
f 23//4 17//4 46//4 47//4
f 13//5 14//5 28//5 27//5
f 37//6 34//6 3//6 2//6
f 12//5 24//5 30//5 26//5
f 35//5 78//5 82//5 12//5
f 29//5 45//5 48//5 19//5
f 1//7 33//7 38//7 4//7
f 77//4 81//4 16//4 32//4
f 34//6 32//6 22//6 53//6
f 37//6 52//6 28//6 36//6
f 38//7 35//7 26//7 54//7
f 33//7 51//7 20//7 31//7
f 52//4 2//4 8//4 58//4
f 60//4 10//4 49//4 61//4
f 56//4 6//4 4//4 54//4
f 55//5 51//5 1//5 5//5
f 59//5 62//5 50//5 9//5
f 53//5 57//5 7//5 3//5
f 21//3 57//3 53//3 22//3
f 45//7 61//7 49//7 48//7
f 29//6 19//6 10//6 60//6
f 23//6 59//6 9//6 17//6
f 47//7 46//7 50//7 62//7
f 21//7 15//7 7//7 57//7
f 27//7 58//7 8//7 13//7
f 30//6 24//6 6//6 56//6
f 25//6 55//6 5//6 18//6
f 11//4 81//4 77//4 31//4
f 78//5 36//5 14//5 82//5
usemtl INDX_07
f 80//3 1//3 4//3 79//3
f 3//3 80//3 79//3 2//3
usemtl 0D000_0
f 64//5 66//5 70//5 68//5
f 63//4 67//4 69//4 65//4
f 68//8 70//8 39//8 44//8
f 67//9 43//9 40//9 69//9
f 32//10 34//10 73//10 74//10
f 41//11 32//11 74//11 72//11
f 37//12 36//12 76//12 75//12
f 36//13 42//13 71//13 76//13
usemtl 0000B_00
f 77//14 78//14 35//14 31//14
f 32//14 36//14 78//14 77//14
