# Blender v2.78 (sub 0) OBJ File: 'more_builds.blend'
# www.blender.org
mtllib platf00.mtl
o PLATFORM00.003_Cube.031
v -50.000000 -8.013306 50.000000
v 50.000000 -8.013306 50.000000
v -50.000000 -8.013306 -50.000000
v 50.000000 -8.013306 -50.000000
v 0.000000 8.013290 10.467624
v 0.000000 -3.925919 20.421124
v 10.467529 8.013290 0.000000
v 20.421028 -3.925919 0.000000
v -10.467529 8.013290 0.000000
v -20.421028 -3.925919 0.000000
v 0.000000 8.013290 -10.467624
v 0.000000 -3.925919 -20.421124
v -17.677673 -8.013306 50.000000
v 50.000000 -8.013306 0.000000
v -17.677673 -8.013306 -50.000000
v -50.000000 -8.013306 -17.677673
v 17.677670 -8.013306 17.677670
v 17.677673 -8.013306 50.000000
v 50.000000 -8.013306 -17.677673
v -50.000000 -8.013306 17.677673
v 50.000000 -8.013306 17.677673
v 17.677673 -8.013306 -50.000000
v -17.677673 -8.013306 -17.677673
v 17.677673 -8.013306 -17.677673
v -17.677673 -8.013306 17.677673
vn 0.0000 -1.0000 0.0000
vn 0.6091 0.5078 0.6091
vn 0.6091 0.5078 -0.6091
vn -0.6091 0.5078 -0.6091
vn -0.6091 0.5078 0.6091
vn 0.0000 1.0000 0.0000
usemtl DUAL_TILE01
s off
f 17//1 25//1 23//1 24//1
f 16//1 3//1 15//1 23//1
f 25//1 20//1 16//1 23//1
f 1//1 20//1 25//1 13//1
f 22//1 24//1 23//1 15//1
f 4//1 19//1 24//1 22//1
f 17//1 24//1 19//1 21//1
f 18//1 17//1 21//1 2//1
f 17//1 18//1 13//1 25//1
usemtl ffield
f 5//2 6//2 8//2 7//2
f 7//3 8//3 12//3 11//3
f 11//4 12//4 10//4 9//4
f 9//5 10//5 6//5 5//5
f 7//6 11//6 9//6 5//6
l 21 14
l 14 19
