# Blender v2.78 (sub 0) OBJ File: 'more_builds.blend'
# www.blender.org
mtllib post01.mtl
o Cube.024_Cube.022
v -9.999999 69.918091 -19.161512
v -7.703627 54.142944 -16.865141
v -10.000001 69.918091 0.838487
v -7.703629 54.142944 -1.457885
v 10.000001 69.918091 -19.161512
v 7.703628 54.142944 -16.865141
v 9.999999 69.918091 0.838489
v 7.703627 54.142944 -1.457884
v -7.198615 69.918091 -16.360128
v -7.198617 69.918091 -1.962896
v 7.198616 69.918091 -16.360128
v 7.198615 69.918091 -1.962895
v -0.000000 88.015175 -9.161512
v 0.000000 39.618084 -11.262440
v -0.000000 39.618084 -7.161512
v 0.000000 -38.556919 -11.262440
v -0.000000 -38.556919 -7.161512
v -0.000000 -33.488911 -7.161512
v -0.000001 -38.556919 -2.161512
v -0.000001 -33.488911 -2.161512
v -0.000000 34.568085 -7.161512
v -0.000001 39.618084 -2.161512
v -0.000001 34.568085 -2.161512
v -0.000000 -1.985413 -7.161512
v -0.000000 3.064587 -7.161512
v -0.000001 -1.985413 -2.161512
v -0.000001 3.064587 -2.161512
v -0.000002 -33.488911 12.838489
v -0.000002 -38.556919 12.838489
v -0.000002 39.618084 12.838489
v -0.000002 34.568085 12.838489
vn -0.9896 -0.1441 -0.0000
vn -0.0000 -0.1441 0.9896
vn 0.9896 -0.1441 0.0000
vn 0.0000 -0.1441 -0.9896
vn 0.0000 -1.0000 -0.0000
vn 1.0000 0.0000 0.0000
vn 0.0000 -0.3599 -0.9330
vn -0.0000 -0.3655 0.9308
vn 0.8834 -0.4686 0.0000
vn -0.8834 -0.4686 -0.0000
vn 0.9292 0.3696 0.0000
vn -0.9292 0.3696 0.0000
vn 0.0000 0.3696 -0.9292
vn -0.0000 0.3696 0.9292
usemtl INDX_07
s off
f 1//1 2//1 4//1 3//1
f 3//2 4//2 8//2 7//2
f 7//3 8//3 6//3 5//3
f 5//4 6//4 2//4 1//4
f 10//5 9//5 11//5 12//5
usemtl 0D000_02
f 14//6 15//6 17//6 16//6
usemtl 000G0_07
f 2//7 6//7 14//7
f 8//8 4//8 15//8
f 6//9 8//9 15//9 14//9
f 4//10 2//10 14//10 15//10
usemtl 0D000_08
f 31//6 28//6 20//6 23//6
usemtl 0D0G0_00
f 17//6 18//6 20//6 19//6
f 21//6 15//6 22//6 23//6
f 25//6 27//6 26//6 24//6
usemtl 000G0_00
f 12//11 11//11 13//11
f 9//12 10//12 13//12
f 11//13 9//13 13//13
f 10//14 12//14 13//14
usemtl AD0G0_1
f 23//6 22//6 30//6 31//6
f 19//6 20//6 28//6 29//6
