# Blender v2.78 (sub 0) OBJ File: 'more_builds.blend'
# www.blender.org
mtllib post02.mtl
o Cube.026_Cube.024
v 0.000000 49.439247 -6.382553
v 0.000000 -14.292088 -19.030600
v 0.000000 49.439247 -13.882553
v 0.000000 -16.557491 -26.180281
v 0.000000 69.439247 1.955262
v 0.000000 49.439247 -0.612047
v 7.044701 69.439247 -12.134140
v 8.270506 49.439247 -16.153057
v -7.044701 69.439247 -12.134140
v -8.270506 49.439247 -16.153057
v 0.000000 -28.939943 5.099325
v 0.000000 -33.171799 32.275421
v 0.000000 83.607635 -5.903511
v 11.000000 69.439247 -15.089439
v 0.000000 69.439247 5.910561
v -11.000000 69.439247 -15.089439
v 0.000000 69.439247 -15.089439
v 0.000000 49.439247 -16.153057
v 0.000000 -36.844761 4.981501
v -5.000000 -16.557491 -26.180281
v 0.000000 -22.196903 -19.148424
v -5.000000 -24.462307 -26.298105
v 5.000000 -16.557491 -26.180281
v 5.000000 -24.462307 -26.298105
v 0.000000 -25.266985 32.393246
v 0.000000 -25.973801 27.140867
v 0.000000 -17.157476 -14.310348
v 0.000000 -9.518198 -17.984165
v 0.000000 -20.829510 32.377945
v 0.000000 -19.841183 27.747042
v 0.000000 -10.531388 -13.236775
v 0.000000 4.249933 -15.339143
v 0.000000 -6.481037 34.941765
vn 0.8749 -0.1472 0.4614
vn 0.0000 0.0531 -0.9986
vn -0.8749 -0.1472 0.4614
vn 0.0000 0.0149 -0.9999
vn -0.8182 -0.0086 0.5749
vn 0.8182 -0.0086 0.5749
vn 0.0000 -0.9533 0.3021
vn 1.0000 0.0000 0.0000
vn 0.0000 0.4026 -0.9154
vn 0.8681 0.2408 0.4341
vn -0.8681 0.2408 0.4341
vn 0.0000 -1.0000 0.0000
vn 0.0000 0.9533 -0.3021
usemtl INDX_04
s off
f 15//1 6//1 8//1 14//1
f 17//2 18//2 10//2 16//2
f 16//3 10//3 6//3 15//3
f 14//2 8//2 18//2 17//2
usemtl INDX_00
f 23//4 24//4 22//4 20//4
f 20//5 22//5 21//5 2//5
f 23//6 2//6 21//6 24//6
f 24//7 21//7 22//7
usemtl 0D000_02
f 1//8 2//8 4//8 3//8
usemtl 0D000_03
f 2//8 11//8 19//8 21//8
f 19//8 11//8 25//8 12//8
usemtl 000G0_00
f 7//9 9//9 13//9
f 5//10 7//10 13//10
f 9//11 5//11 13//11
f 18//12 6//12 10//12
f 8//12 6//12 18//12
f 2//13 23//13 20//13
usemtl 0D0G0_00
f 27//8 2//8 28//8 31//8
f 25//8 26//8 30//8 29//8
usemtl AD000_03
f 32//8 33//8 29//8 28//8
l 31 30
