# Blender v2.78 (sub 0) OBJ File: 'satmap09.blend'
# www.blender.org
mtllib satramp.mtl
o Cube.014_Cube.039
v -506.266724 -113.227966 -2.965088
v -730.912781 -232.804840 -607.198364
v -621.993958 -144.524734 63.569580
v -746.059814 -278.455566 -932.923340
v -752.433105 -206.610626 -257.401062
v -869.086426 -266.835876 -615.501160
v -620.369141 -174.852631 -302.208496
v -918.342651 -302.159790 -934.745422
v -327.855865 -48.369518 250.411133
v -434.734772 -82.168312 317.683472
v -170.960144 12.536856 464.174927
v -262.520264 -21.238001 569.508911
v 64.829697 83.735687 645.548035
v 9.621215 57.007538 766.258911
v 342.216919 154.647720 757.501099
v 308.940308 134.007278 881.611206
v 631.192871 220.288422 805.783203
v 615.692078 213.486710 929.406067
v 911.711121 235.653381 814.404724
v 911.146545 234.513123 937.909424
v -506.475189 -20.975042 -3.496094
v -719.637939 -131.198975 -613.236389
v -755.942871 -173.360886 -938.030823
v -618.865906 -76.711914 -302.509888
v -329.115051 43.964676 250.938110
v -164.461182 101.812637 464.100586
v 65.919373 170.408493 645.745728
v 338.851440 241.184784 761.853149
v 633.277100 309.069519 807.137329
v 911.146545 343.350677 815.827637
v -621.877930 -233.235565 63.162598
v -752.383118 -285.648163 -256.657715
v -887.875671 -341.731201 -612.936768
v -920.614136 -371.561523 -935.634094
v -434.905792 -172.136276 318.008057
v -256.839050 -113.206497 571.479980
v 10.859253 -37.400345 766.693848
v 309.960083 40.229626 882.067383
v 617.411743 115.084969 928.832275
v 911.146545 167.139832 938.030884
v 877.176147 252.787781 811.322327
v 877.873291 251.033585 933.892517
v 877.807007 343.350677 811.917664
v 877.807007 167.139832 933.892212
v 836.003662 248.420334 932.814697
v 835.140015 158.610397 933.063110
v 836.450195 252.773926 810.700073
v 837.739624 343.350677 811.134399
v -738.486328 -255.630203 -770.060852
v -893.714539 -284.497833 -775.123291
v -737.790405 -152.279938 -775.633606
v -904.244873 -356.646362 -774.285400
v -810.759766 -236.723251 -436.451111
v -675.640991 -203.828735 -454.703430
v -669.251953 -103.955444 -457.873138
v -820.129395 -313.689697 -434.797241
v -687.213501 -175.567688 -96.915741
v -563.317932 -144.040298 -152.586792
v -562.670532 -48.843479 -153.002991
v -687.130493 -259.441864 -96.747559
v -417.061279 -80.798744 123.723022
v -528.364380 -113.346527 190.626526
v -417.795105 11.494818 123.721008
v -528.391846 -202.685913 190.585327
v -249.408005 -17.916332 357.293030
v -348.627502 -51.703156 443.596191
v -246.788116 72.888657 357.519348
v -345.872437 -142.671387 444.744019
v -53.065224 48.136269 554.861450
v -126.449524 17.884769 667.883911
v -49.270905 136.110565 554.923157
v -122.989899 -75.303421 669.086914
v 203.523300 119.191704 701.524536
v 159.280762 95.507408 823.935059
v 202.385406 205.796631 703.799438
v 160.409668 1.414639 824.380615
v 486.704895 187.468079 781.642151
v 462.316193 173.746994 905.508667
v 486.064270 275.127136 784.495239
v 463.685913 77.657295 905.449829
vn 0.3193 -0.9461 -0.0550
vn 0.3394 -0.9406 0.0062
vn 0.3026 -0.9529 0.0208
vn 0.2891 -0.9542 0.0763
vn 0.2532 -0.9637 0.0850
vn 0.2041 -0.9736 0.1019
vn 0.2786 -0.9567 -0.0844
vn 0.2428 -0.9692 -0.0412
vn -0.4437 -0.8961 -0.0103
vn 0.9359 -0.0117 -0.3520
vn 0.0202 0.0096 -0.9998
vn 0.1483 0.0443 -0.9879
vn 0.3799 0.0133 -0.9249
vn 0.6207 -0.0361 -0.7832
vn 0.9467 -0.0970 -0.3072
vn 0.7992 -0.0035 -0.6010
vn 0.8187 0.0025 -0.5742
vn 0.9957 0.0396 -0.0841
vn 0.9261 0.0016 -0.3774
vn 0.1213 -0.0008 -0.9926
vn 0.1508 0.0056 -0.9886
vn 0.9443 -0.0614 -0.3233
vn 0.3598 -0.0004 -0.9330
vn 0.5861 0.0076 -0.8102
vn 0.9749 -0.1968 -0.1045
vn 0.8184 0.0280 -0.5740
vn 0.8059 -0.0018 -0.5921
vn 0.0228 -0.0015 -0.9997
vn 0.1050 0.0101 -0.9944
vn 0.0323 -0.9992 -0.0250
vn 0.1570 -0.9870 -0.0346
vn 0.0171 0.0018 -0.9999
vn 0.0174 0.0055 -0.9998
vn 0.9891 -0.0894 -0.1173
vn 0.9956 -0.0621 -0.0704
vn 0.1554 -0.9820 0.1078
vn 0.9362 -0.1819 -0.3008
vn 0.9474 -0.0433 -0.3172
vn 0.2400 -0.9666 0.0900
vn 0.9262 -0.0014 -0.3769
vn 0.9355 -0.0040 -0.3534
vn 0.2704 -0.9590 0.0847
vn 0.8054 0.0019 -0.5927
vn 0.8177 0.0105 -0.5756
vn 0.2881 -0.9570 0.0323
vn 0.8210 0.0071 -0.5708
vn 0.8035 -0.0402 -0.5940
vn 0.3240 -0.9459 0.0185
vn 0.5847 0.0150 -0.8111
vn 0.6173 -0.0161 -0.7865
vn 0.3114 -0.9493 -0.0431
vn 0.3597 0.0002 -0.9331
vn 0.3725 0.0452 -0.9269
vn 0.1522 -0.0002 -0.9883
vn 0.1533 0.0223 -0.9879
vn 0.2476 -0.9659 -0.0763
usemtl INDX_00
s off
f 70//1 69//1 13//1 14//1
f 66//2 65//2 11//2 12//2
f 62//3 61//3 9//3 10//3
f 57//4 58//4 1//4 3//4
f 53//5 54//5 7//5 5//5
f 50//6 49//6 2//6 6//6
f 74//7 73//7 15//7 16//7
f 78//8 77//8 17//8 18//8
f 42//9 41//9 19//9 20//9
f 58//10 7//10 24//10 59//10
f 47//11 17//11 29//11 48//11
f 77//12 15//12 28//12 79//12
f 73//13 13//13 27//13 75//13
f 69//14 11//14 26//14 71//14
f 54//15 2//15 22//15 55//15
f 65//16 9//16 25//16 67//16
f 61//17 1//17 21//17 63//17
f 49//18 4//18 23//18 51//18
f 57//19 3//19 31//19 60//19
f 42//20 20//20 40//20 44//20
f 78//21 18//21 39//21 80//21
f 53//22 5//22 32//22 56//22
f 74//23 16//23 38//23 76//23
f 70//24 14//24 37//24 72//24
f 50//25 6//25 33//25 52//25
f 66//26 12//26 36//26 68//26
f 62//27 10//27 35//27 64//27
f 45//28 42//28 44//28 46//28
f 19//29 41//29 43//29 30//29
f 45//30 47//30 41//30 42//30
f 18//31 17//31 47//31 45//31
f 18//32 45//32 46//32 39//32
f 41//33 47//33 48//33 43//33
f 8//34 50//34 52//34 34//34
f 2//35 49//35 51//35 22//35
f 8//36 4//36 49//36 50//36
f 6//37 53//37 56//37 33//37
f 7//38 54//38 55//38 24//38
f 6//39 2//39 54//39 53//39
f 5//40 57//40 60//40 32//40
f 1//41 58//41 59//41 21//41
f 5//42 7//42 58//42 57//42
f 3//43 62//43 64//43 31//43
f 9//44 61//44 63//44 25//44
f 3//45 1//45 61//45 62//45
f 10//46 66//46 68//46 35//46
f 11//47 65//47 67//47 26//47
f 10//48 9//48 65//48 66//48
f 12//49 70//49 72//49 36//49
f 13//50 69//50 71//50 27//50
f 12//51 11//51 69//51 70//51
f 14//52 74//52 76//52 37//52
f 15//53 73//53 75//53 28//53
f 14//7 13//7 73//7 74//7
f 16//54 78//54 80//54 38//54
f 17//55 77//55 79//55 29//55
f 16//56 15//56 77//56 78//56
