# Blender v2.78 (sub 0) OBJ File: 'more_builds.blend'
# www.blender.org
mtllib tunnel2.mtl
o Cube.014_Cube.011
v -200.000000 -157.744324 -39.216263
v -200.000000 -157.744324 39.216232
v -200.000000 -187.744324 69.216232
v 200.000000 -157.744324 -39.216232
v -200.000000 -159.410995 103.549568
v 200.000000 -157.744324 39.216263
v -200.000000 -135.521805 67.776207
v -199.999939 -112.000000 119.999756
v -200.000000 -51.000000 79.999985
v 200.000000 -187.744324 69.216263
v 200.000000 -159.410995 103.549599
v 200.000000 -135.521805 67.776237
v 200.000000 -112.000000 120.000000
v -200.000000 -187.744324 -69.216263
v -200.000000 -159.410995 -103.549599
v 200.000000 -50.999996 79.999878
v -200.000000 -135.521805 -67.776237
v 200.000000 -187.744324 -69.216232
v -200.000000 -112.000000 -120.000015
v 200.000000 -159.410995 -103.549568
v 200.000000 -135.521805 -67.776207
v 200.000000 -112.000000 -119.999985
v 200.000000 -51.000000 -79.999985
v 200.000000 -12.255615 80.000015
v 200.000000 -12.255676 120.000000
v -200.000000 -51.000000 -80.000015
v -200.000000 -12.255615 79.999985
v -200.000000 -12.255676 119.999969
v 200.000000 -12.255615 -79.999985
v 160.000000 -12.255676 120.000000
v 200.000000 187.744308 80.000015
v 200.000000 187.744308 120.000000
v 160.000000 187.744308 120.000000
v 200.000000 -12.255676 -119.999985
v 160.000000 -12.255676 -119.999985
v 200.000000 187.744308 -79.999985
v 200.000000 187.744308 -119.999985
v 160.000000 187.744308 -119.999985
v -200.000000 -12.255615 -80.000015
v -160.000000 -12.255676 119.999969
v -200.000000 187.744308 79.999985
v -200.000000 187.744308 119.999969
v -160.000000 187.744308 119.999969
v -200.000000 -12.255676 -120.000015
v -160.000000 -12.255676 -120.000015
v -200.000000 187.744308 -80.000015
v -200.000000 187.744308 -120.000015
v -160.000000 187.744308 -120.000015
v -0.000007 -51.000000 80.000000
v 0.000003 -157.744324 -39.216248
v -0.000003 -157.744324 39.216248
v 0.000007 -51.000000 -80.000000
v 0.000010 -112.000000 -120.000000
v -0.000010 -112.000000 119.999985
v -0.000006 -187.744324 69.216248
v 0.000006 -187.744324 -69.216248
v 0.000007 -112.000008 -80.000000
v -200.000000 -112.000008 -80.000015
v -0.000007 -112.000008 80.000000
v -199.999939 -112.000000 79.999878
v 200.000000 -112.000008 -79.999985
v 200.000000 -112.000008 80.000015
v -200.000000 -50.999996 119.999969
v 200.000000 -50.999996 120.000000
v 200.000000 -50.999996 -119.999985
v -200.000000 -50.999996 -120.000015
v 0.000000 -12.255676 -120.000000
v 0.000000 -50.999996 -120.000000
v 0.000000 -12.255676 119.999985
v 0.000000 -50.999996 119.999985
vn -1.0000 0.0000 0.0000
vn 1.0000 0.0000 0.0000
vn -0.0000 0.7071 0.7071
vn 0.0000 0.7071 -0.7071
vn 0.0000 1.0000 -0.0000
vn 0.0000 0.0000 1.0000
vn 0.0000 0.0000 -1.0000
vn -0.0000 -1.0000 0.0000
usemtl INDX_00
s off
f 1//1 14//1 3//1 2//1
f 18//2 4//2 6//2 10//2
f 55//3 10//3 6//3 51//3
f 56//4 14//4 1//4 50//4
f 18//4 56//4 50//4 4//4
f 51//5 6//5 4//5 50//5
f 2//5 51//5 50//5 1//5
f 3//3 55//3 51//3 2//3
usemtl 0D000_07
f 28//6 40//6 43//6 42//6
f 39//1 46//1 47//1 44//1
f 27//1 39//1 26//1 9//1
f 29//2 34//2 37//2 36//2
f 34//7 35//7 38//7 37//7
f 44//7 47//7 48//7 45//7
f 16//2 23//2 29//2 24//2
f 25//6 32//6 33//6 30//6
f 24//2 31//2 32//2 25//2
f 27//1 28//1 42//1 41//1
f 23//2 65//2 34//2 29//2
f 16//2 24//2 25//2 64//2
f 26//1 39//1 44//1 66//1
f 27//1 9//1 63//1 28//1
f 70//6 64//6 25//6 69//6
f 68//7 66//7 44//7 67//7
f 65//7 68//7 67//7 34//7
f 63//6 70//6 69//6 28//6
usemtl 0D000_0
f 13//2 11//2 12//2 62//2
f 1//1 17//1 15//1 14//1
f 58//1 19//1 15//1 17//1
f 5//1 7//1 2//1 3//1
f 20//2 21//2 4//2 18//2
f 8//1 60//1 7//1 5//1
f 11//2 10//2 6//2 12//2
f 22//2 61//2 21//2 20//2
f 54//8 59//8 62//8 13//8
f 59//8 54//8 8//8 60//8
f 53//8 57//8 58//8 19//8
f 57//8 53//8 22//8 61//8
f 16//2 64//2 13//2 62//2
f 65//2 23//2 61//2 22//2
f 66//1 19//1 58//1 26//1
f 60//1 8//1 63//1 9//1
usemtl 0DM00_01
f 52//6 26//6 58//6 57//6
f 62//7 59//7 49//7 16//7
f 59//7 60//7 9//7 49//7
f 23//6 52//6 57//6 61//6
usemtl 0000B_00
f 55//8 56//8 18//8 10//8
f 3//8 14//8 56//8 55//8
usemtl 0D00B_07
f 49//8 52//8 23//8 16//8
f 9//8 26//8 52//8 49//8
l 27 60
l 29 61
l 58 39
l 24 62
