# Blender v2.78 (sub 0) OBJ File: 'more_builds.blend'
# www.blender.org
mtllib tuti.mtl
o Cube.027_Cube.026
v -930.592163 -130.155792 273.035706
v -954.873047 -130.155792 273.035706
v -930.592163 -130.155792 248.754883
v -954.873047 -130.155792 248.754883
v -882.732605 -65.155800 296.533203
v -1002.732605 -65.155800 516.533203
v -1002.732605 -65.155800 296.533203
v -882.732605 -115.155800 296.533203
v -1002.732605 -115.155800 516.533203
v -1002.732605 -115.155800 296.533203
v -882.732605 -89.672302 54.408627
v -1002.732605 -89.672302 54.408627
v -882.732605 -70.155800 -4.140884
v -1002.732605 -70.155800 -4.140884
v -882.732605 -20.155792 -4.140884
v -1002.732605 -20.155792 -4.140884
v -882.732605 -20.155792 -91.533157
v -1002.732605 -20.155792 -91.533157
v -882.732605 -105.155800 -91.533157
v -882.732605 -105.155800 -211.533157
v -1002.732605 -105.155800 -211.533157
v -782.732666 -20.155792 -4.140884
v -782.732666 -20.155792 -91.533157
v -882.732605 -20.155792 -211.533157
v -782.732666 -20.155792 -211.533157
v -862.732666 -20.155792 -291.533142
v -782.732666 -20.155792 -291.533142
v -1002.732605 -20.155792 -211.533157
v -1002.732605 -20.155792 -291.533142
v -862.732666 -105.155800 -291.533142
v -862.732666 -105.155800 -426.533142
v -1002.732605 -105.155800 -426.533142
v -862.732788 -156.445404 -181.533157
v -862.732788 -156.445404 -291.533142
v -1002.732605 -156.445404 -181.533173
v -1002.732605 -115.155800 406.533203
v -862.732788 -236.377533 -181.533157
v -862.732788 -236.377533 -291.533142
v -1002.732788 -236.377533 -181.533157
v -1002.732605 -236.377533 -301.584778
v -862.732666 -175.155792 -426.533142
v -1002.732605 -175.155792 -426.533142
v -862.732666 -175.155792 -526.533203
v -1002.732605 -175.155792 -526.533203
v -882.732788 -261.377533 31.211075
v -1002.732605 -261.377533 31.211075
v -882.732788 -261.377533 270.532104
v -1002.732605 -261.377533 270.532104
v -1002.732605 -165.155792 -4.140884
v -882.732605 -165.155792 -4.140884
v -1002.732605 -215.155792 145.859116
v -882.732605 -215.155792 145.859116
v -807.732666 -261.377533 170.694672
v -807.732666 -261.377533 266.568146
v -515.629272 -123.106506 170.694672
v -515.629272 -123.106506 266.568146
v 147.558105 356.170135 170.694672
v 147.558105 356.170135 266.568146
v 1002.732788 313.040161 323.470764
v 509.799957 288.751740 170.694672
v 509.799957 288.751740 266.568146
v -163.927597 160.276215 170.694672
v -163.927597 160.276215 266.568146
v 346.973480 361.377533 170.694672
v 346.973480 361.377533 266.568146
v 543.433044 288.751740 170.694672
v 543.433044 288.751740 266.568146
v -663.962158 -199.389435 266.568146
v -663.962158 -199.389435 170.694672
v -366.250763 -12.696854 266.568146
v -366.250763 -12.696869 170.694672
v 1.669825 279.600739 170.694672
v 1.669825 279.600739 266.568146
v -882.732605 -105.155800 -4.140884
v -782.732666 -105.155800 -4.140884
v -782.732666 -105.155800 -91.533157
v -782.732666 -105.155800 -291.533142
v -882.732605 -246.377533 -4.140884
v -782.732666 -246.377533 -4.140884
v -782.732666 -246.377533 -91.533157
v -882.732605 -115.155800 406.533203
v -1002.732605 -105.155800 -4.140884
v -1002.732605 -105.155800 -91.533157
v -1002.732605 -105.155800 -291.533142
v -1002.732605 -236.377533 -4.140884
v -862.732666 -305.155792 -526.533203
v -1002.732605 -305.155792 -526.533203
v -862.732727 -156.445404 -301.662231
v -1002.732605 -175.155792 -301.584778
v -862.732727 -305.155792 -301.662231
v -1002.732605 -305.155792 -301.584778
v -862.732666 -105.155800 -301.533142
v -1002.732605 -105.155792 -301.584778
v -1002.732605 -346.377533 -4.140884
v -862.732788 -346.377533 -181.533157
v -1002.732788 -346.377533 -181.533157
v -1002.732605 -346.377533 -301.662231
v -862.732788 -346.377533 -301.662231
v -882.732788 -346.377533 -4.140884
v -1002.732605 -261.377533 169.451920
v -882.732788 -261.377533 169.451920
v -882.732788 -361.377533 31.211075
v -1002.732605 -361.377533 31.211075
v -882.732788 -361.377533 270.532104
v -1002.732605 -361.377533 270.532104
v -1002.732605 -361.377533 169.451920
v -882.732788 -361.377533 169.451920
v -1002.732605 -215.155792 516.533203
v -1002.732605 -105.155800 -181.533173
v -933.268188 -94.985100 481.035522
v -956.639893 -94.985100 481.035522
v -933.268188 -94.985100 457.663818
v -956.639893 -94.985100 457.663818
v -930.592163 -120.155800 -134.392761
v -954.873047 -120.155800 -134.392761
v -930.592163 -120.155800 -158.673584
v -954.873047 -120.155800 -158.673584
v -930.592163 -120.155800 -346.892731
v -954.873047 -120.155800 -346.892731
v -930.592163 -120.155800 -371.173553
v -954.873047 -120.155800 -371.173553
v -930.592163 -190.155792 -464.392761
v -954.873047 -190.155792 -464.392761
v -930.592163 -190.155792 -488.673584
v -954.873047 -190.155792 -488.673584
v -930.592163 -251.377533 -239.418549
v -954.873047 -251.377533 -239.418549
v -930.592163 -251.377533 -263.699371
v -954.873047 -251.377533 -263.699371
v -930.592163 -276.377533 232.132416
v -954.873047 -276.377533 232.132416
v -930.592163 -276.377533 207.851593
v -954.873047 -276.377533 207.851593
v 931.277344 298.040161 230.771820
v 906.996460 298.040161 230.771820
v 931.277344 298.040161 206.490997
v 906.996460 298.040161 206.490997
v -933.268188 -85.626732 481.035522
v -956.639893 -85.626732 481.035522
v -933.268188 -85.626732 457.663818
v -956.639893 -85.626732 457.663818
v -882.732605 -115.155800 145.859116
v -1002.732605 -115.155800 145.859116
v -882.732605 -89.672302 145.859116
v -1002.732605 -89.672302 145.859116
v -882.732605 -165.155792 54.408627
v -1002.732605 -165.155792 54.408627
v 543.433044 388.040161 170.694672
v 835.540833 213.040161 323.470764
v -862.732666 -105.155800 -332.934906
v -1002.732605 -105.155800 -332.934906
v -862.732666 -105.155800 -360.391266
v -1002.732605 -105.155800 -360.391266
v 1002.732788 93.040161 113.792038
v 1002.732788 213.040161 323.470764
v 835.540833 193.040161 -186.207962
v 1002.732788 193.040161 -186.207962
v 1002.732788 93.040161 -186.207962
v 835.540833 93.040161 -186.207962
v -862.732666 -246.377533 -291.533142
v -782.732666 -246.377533 -291.533142
v -1002.732605 -156.445404 -301.584778
v -862.732788 -156.445404 -301.533142
v -862.732788 -236.377533 -301.533142
v -862.732727 -175.155792 -301.662231
v -882.732605 -215.155792 406.533203
v -1002.732605 -215.155792 406.533203
v -882.732605 -115.155800 516.533203
v -882.732605 -215.155792 516.533203
v -882.732605 -65.155800 516.533203
v 1002.732788 313.040161 113.792038
v 1002.732788 213.040161 113.792038
v 919.136841 313.040161 113.792038
v 877.338867 313.040161 113.792038
v 835.540833 193.040161 113.792038
v 1002.732788 193.040161 113.792038
v 919.136841 193.040161 113.792038
v 877.338867 193.040161 113.792038
v -807.732666 -361.377533 170.694672
v -807.732666 -361.377533 266.568146
v -515.629272 -223.106506 170.694672
v -515.629272 -223.106506 266.568146
v 147.558105 256.170135 170.694672
v 147.558105 256.170135 266.568146
v 509.799957 188.751740 170.694672
v 509.799957 188.751740 266.568146
v -163.927597 60.276215 170.694672
v -163.927597 60.276215 266.568146
v 346.973480 261.377533 170.694672
v 346.973480 261.377533 266.568146
v 543.433044 188.751740 170.694672
v 543.433044 188.751740 266.568146
v -663.962158 -299.389435 266.568146
v -663.962158 -299.389435 170.694672
v -366.250763 -112.696854 266.568146
v -366.250763 -112.696869 170.694672
v 1.669825 179.600739 170.694672
v 1.669825 179.600739 266.568146
v 835.540833 388.040161 323.470764
v 835.540833 388.040161 113.792038
v 543.432983 388.040161 323.470764
v 543.432983 388.040161 113.792038
v 543.433044 388.040161 266.568146
v 835.540833 313.040161 323.470764
v 835.540833 313.040161 113.792038
v 543.432983 313.040161 323.470764
v 543.432983 313.040161 113.792038
vn 0.0000 -1.0000 0.0000
vn 0.0000 1.0000 0.0000
vn 0.0000 0.8774 0.4797
vn 0.0000 -0.9487 -0.3162
vn 0.0000 0.0000 1.0000
vn 0.0000 0.0000 -1.0000
vn 1.0000 0.0000 0.0000
vn 0.0004 0.0000 -1.0000
vn -1.0000 0.0000 0.0000
vn 0.0000 -0.3449 -0.9387
vn -1.0000 0.0000 -0.0013
vn -0.9937 0.0000 -0.1120
vn -0.0528 0.0000 -0.9986
vn -0.0166 0.0000 0.9999
vn 0.4573 -0.8893 0.0000
vn 0.6498 -0.7601 0.0000
vn -0.4073 -0.9133 0.0000
vn 0.4647 -0.8855 0.0000
vn 0.0261 -0.9997 0.0000
vn 0.3959 -0.9183 0.0000
vn 0.5944 -0.8042 0.0000
vn 0.5846 -0.8113 0.0000
usemtl INDX_00
s off
f 8//1 10//1 143//1 142//1
f 15//1 16//1 18//1 17//1
f 21//1 20//1 19//1 83//1
f 15//1 17//1 23//1 22//1
f 23//1 17//1 24//1 25//1
f 25//1 24//1 26//1 27//1
f 26//1 24//1 28//1 29//1
f 41//1 42//1 44//1 43//1
f 100//1 101//1 47//1 48//1
f 204//1 205//1 171//1 59//1
f 150//1 30//1 84//1 151//1
f 46//1 45//1 101//1 100//1
f 167//2 166//2 52//2 51//2
f 40//1 164//1 37//1 39//1
f 162//2 35//2 33//2 163//2
f 12//1 11//1 144//1 145//1
f 52//3 146//3 147//3 51//3
f 50//2 49//2 147//2 146//2
f 47//1 101//1 53//1 54//1
f 31//1 152//1 153//1 32//1
f 176//1 175//1 156//1 157//1
f 5//1 170//1 6//1 7//1
f 169//2 166//2 167//2 108//2
f 200//1 199//1 201//1 202//1
usemtl INDX_05
f 11//4 12//4 14//4 13//4
f 152//1 150//1 151//1 153//1
usemtl INDX_06
f 17//5 18//5 83//5 19//5
f 21//6 28//6 24//6 20//6
f 17//7 19//7 20//7 24//7
f 162//8 163//8 164//8 40//8
f 14//7 12//7 147//7 49//7
f 144//9 11//9 146//9 52//9
f 43//5 44//5 87//5 86//5
f 11//9 13//9 50//9 146//9
f 36//7 9//7 108//7 167//7
f 12//7 145//7 51//7 147//7
f 167//7 51//7 143//7 36//7
f 166//9 169//9 168//9 81//9
f 166//9 81//9 142//9 52//9
f 91//7 87//7 44//7 89//7
f 165//9 43//9 86//9 90//9
f 108//6 9//6 168//6 169//6
usemtl INDX_10
f 5//5 7//5 10//5 8//5
f 13//6 14//6 16//6 15//6
f 26//5 29//5 84//5 30//5
f 27//5 26//5 30//5 77//5
f 22//9 23//9 76//9 75//9
f 27//9 77//9 76//9 23//9
f 15//6 22//6 75//6 74//6
f 29//7 28//7 21//7 84//7
f 18//7 16//7 82//7 83//7
f 143//6 145//6 144//6 142//6
f 10//7 7//7 6//7 9//7
f 168//9 170//9 5//9 8//9
f 6//6 170//6 168//6 9//6
f 174//5 205//5 175//5 178//5
f 171//5 173//5 177//5 176//5
f 205//9 204//9 199//9 200//9
f 201//6 199//6 204//6 206//6
f 200//5 202//5 207//5 205//5
usemtl INDX_09
f 33//5 35//5 39//5 37//5
f 31//5 32//5 42//5 41//5
f 74//6 75//6 79//6 78//6
f 77//9 161//9 80//9 76//9
f 75//9 76//9 80//9 79//9
f 93//7 89//7 42//7 32//7
f 31//9 41//9 165//9 92//9
f 93//7 109//7 35//7 162//7
f 45//10 46//10 49//10 50//10
f 78//9 45//9 50//9
f 46//7 85//7 49//7
f 34//7 33//7 37//7 38//7
f 39//7 109//7 82//7 85//7
f 88//9 34//9 30//9 92//9
f 77//5 30//5 160//5 161//5
f 60//5 64//5 189//5 185//5
f 69//5 53//5 179//5 194//5
f 54//6 68//6 193//6 180//6
f 55//5 69//5 194//5 181//5
f 64//5 57//5 183//5 189//5
f 70//6 63//6 188//6 195//6
f 58//6 65//6 190//6 184//6
f 71//5 55//5 181//5 196//5
f 56//6 70//6 195//6 182//6
f 62//5 71//5 196//5 187//5
f 61//6 67//6 192//6 186//6
f 72//5 62//5 187//5 197//5
f 66//5 60//5 185//5 191//5
f 57//5 72//5 197//5 183//5
f 63//6 73//6 198//6 188//6
f 65//6 61//6 186//6 190//6
f 68//6 56//6 182//6 193//6
f 73//6 58//6 184//6 198//6
usemtl INDX_04
f 97//7 40//7 39//7 96//7
f 98//9 95//9 37//9 164//9
f 164//11 90//11 98//11
f 40//9 97//9 91//9
f 96//7 39//7 85//7 94//7
f 95//12 99//12 78//12 37//12
f 85//7 46//7 103//7 94//7
f 46//7 100//7 106//7 103//7
f 100//7 48//7 105//7 106//7
f 48//6 47//6 104//6 105//6
f 101//9 45//9 102//9 107//9
f 99//9 102//9 45//9 78//9
f 47//13 54//13 180//13 104//13
f 53//14 101//14 107//14 179//14
f 59//9 171//9 172//9 155//9
f 154//9 176//9 157//9 158//9
f 157//5 156//5 159//5 158//5
f 204//6 59//6 155//6 149//6
usemtl INDX_07
f 68//15 69//15 55//15 56//15
f 70//16 71//16 62//16 63//16
f 65//17 64//17 60//17 61//17
f 73//18 72//18 57//18 58//18
f 65//19 58//19 57//19 64//19
f 61//1 60//1 66//1 67//1
f 54//20 53//20 69//20 68//20
f 56//21 55//21 71//21 70//21
f 63//22 62//22 72//22 73//22
f 67//7 66//7 148//7 203//7
usemtl 000L0_11
f 173//5 174//5 178//5 177//5
usemtl ITEM_61
f 110//1 111//1 113//1 112//1
usemtl ITEM_59
f 138//1 139//1 141//1 140//1
usemtl ITEM_01
f 1//1 2//1 4//1 3//1
usemtl ITEM_02
f 114//1 115//1 117//1 116//1
usemtl ITEM_03
f 118//1 119//1 121//1 120//1
usemtl ITEM_04
f 122//1 123//1 125//1 124//1
usemtl ITEM_05
f 126//1 127//1 129//1 128//1
usemtl ITEM_06
f 130//1 131//1 133//1 132//1
usemtl ITEM_07
f 134//1 135//1 137//1 136//1
