# Blender v2.78 (sub 0) OBJ File: 'more_builds.blend'
# www.blender.org
mtllib wall1.mtl
o Cube.021_Cube.058
v 20.000023 0.000019 80.000000
v 20.000023 -99.999985 80.000000
v 20.000023 0.000019 -80.000000
v 20.000023 -99.999985 -80.000000
v -19.999977 0.000019 80.000000
v -19.999977 -99.999985 80.000000
v -19.999977 0.000019 -80.000000
v -19.999977 -99.999985 -80.000000
v -8.307777 -174.142136 80.000000
v -8.307777 -174.142136 -80.000000
v -36.592079 -145.857834 -80.000000
v -36.592079 -145.857834 80.000000
v -70.734230 -174.142136 80.000000
v -70.734230 -174.142136 -80.000000
v -70.734230 -145.857834 -80.000000
v -70.734230 -145.857834 80.000000
vn 1.0000 0.0000 0.0000
vn 0.0000 0.0000 -1.0000
vn -1.0000 0.0000 0.0000
vn 0.0000 0.0000 1.0000
vn 0.9342 -0.3567 0.0000
vn 0.0000 1.0000 0.0000
vn 0.0000 -1.0000 0.0000
vn -0.9403 0.3402 0.0000
usemtl INDX_04
s off
f 1//1 2//1 4//1 3//1
f 3//2 4//2 8//2 7//2
f 7//3 8//3 6//3 5//3
f 5//4 6//4 2//4 1//4
usemtl INDX_06
f 4//5 2//5 9//5 10//5
f 9//4 12//4 16//4 13//4
f 2//4 6//4 12//4 9//4
f 8//2 4//2 10//2 11//2
f 15//3 14//3 13//3 16//3
f 11//2 10//2 14//2 15//2
f 12//6 11//6 15//6 16//6
f 10//7 9//7 13//7 14//7
usemtl INDX_05
f 6//8 8//8 11//8 12//8
