# Blender v2.78 (sub 0) OBJ File: 'satmapM.blend'
# www.blender.org
mtllib test00.mtl
o Plane.001
v 24.000702 -111.246422 -69.039177
v -12.381927 -111.246422 -69.039177
v 24.000702 -111.246422 -105.421806
v -12.381927 -111.246422 -105.421806
v 58.105423 -111.246422 -69.039177
v 58.105423 -111.246422 -105.421806
v 24.000702 -111.246422 -87.230492
v 5.809387 -111.246422 -69.039177
v -12.381927 -111.246422 -87.230492
v 5.809387 -111.246422 -105.421806
v 58.105423 -111.246422 -87.230492
v 41.053062 -111.246422 -69.039177
v 41.053062 -111.246422 -105.421806
v 41.053062 -111.246422 -87.230492
v 5.809387 -111.246422 -87.230492
v 75.866676 -111.246422 -69.039177
v 75.866676 -111.246422 -105.421806
v 75.866676 -111.246422 -87.230492
vn 0.0000 -1.0000 0.0000
usemtl ydirt
s off
f 8//1 2//1 9//1 15//1
usemtl stone
f 1//1 7//1 14//1 12//1
usemtl wood
f 1//1 8//1 15//1 7//1
usemtl white_brick
f 12//1 14//1 11//1 5//1
usemtl sand
f 5//1 11//1 18//1 16//1
usemtl river_rock
f 15//1 9//1 4//1 10//1
usemtl red_shingle
f 7//1 15//1 10//1 3//1
usemtl red_brick
f 7//1 3//1 13//1 14//1
usemtl grass
f 14//1 13//1 6//1 11//1
usemtl c_tile
f 11//1 6//1 17//1 18//1
