# Blender v2.78 (sub 0) OBJ File: 'terrain.blend'
# www.blender.org
mtllib post00.mtl
o Cube.011_Cube.012
v -9.999998 73.482491 21.249207
v -9.999998 -16.392471 21.249207
v -10.000000 73.482491 41.249207
v -10.000000 -16.392471 41.249207
v 9.999998 73.482491 21.249207
v 9.999998 -16.392471 21.249207
v 9.999996 73.482491 41.249207
v 9.999996 -16.392471 41.249207
v -9.999996 -61.109863 -3.324098
v -9.999998 -61.109863 16.675903
v 9.999998 -61.109863 16.675903
v 10.000000 -61.109863 -3.324096
v -9.999995 -73.482483 -12.216432
v -9.999997 -73.482483 7.783568
v 9.999999 -73.482483 7.783570
v 10.000001 -73.482483 -12.216430
v 10.000003 -61.109863 -32.356934
v -9.999993 -61.109863 -32.356934
v 10.000004 -73.482483 -41.249268
v -9.999992 -73.482483 -41.249268
vn -1.0000 0.0000 -0.0000
vn 0.0000 0.0000 1.0000
vn 1.0000 0.0000 0.0000
vn 0.0000 0.0000 -1.0000
vn 0.0000 1.0000 0.0000
vn 0.0000 -0.4816 0.8764
vn 0.0000 0.4816 -0.8764
vn 0.0000 -1.0000 0.0000
vn 0.0000 -0.5836 0.8120
vn 0.0000 0.5836 -0.8120
usemtl WALL02
s off
f 1//1 2//1 4//1 3//1
f 3//2 4//2 8//2 7//2
f 7//3 8//3 6//3 5//3
f 5//4 6//4 2//4 1//4
f 3//5 7//5 5//5 1//5
f 8//6 4//6 10//6 11//6
f 12//3 11//3 15//3 16//3
f 6//3 8//3 11//3 12//3
f 4//1 2//1 9//1 10//1
f 2//7 6//7 12//7 9//7
f 15//8 14//8 13//8 16//8
f 10//1 9//1 13//1 14//1
f 12//3 16//3 19//3 17//3
f 11//9 10//9 14//9 15//9
f 18//10 17//10 19//10 20//10
f 16//8 13//8 20//8 19//8
f 13//1 9//1 18//1 20//1
usemtl LIGHTS
f 9//5 12//5 17//5 18//5
