# Blender v2.78 (sub 0) OBJ File: 'terrain.blend'
# www.blender.org
mtllib ring00.mtl
o RING00_Cube.005
v 24.478533 24.478533 0.000000
v 24.478533 -24.478533 0.000000
v -24.478533 24.478533 0.000000
v -24.478533 -24.478533 0.000000
v 0.000000 37.561153 0.000000
v 0.000000 -37.561153 0.000000
v 37.561153 0.000000 0.000000
v -37.561153 0.000000 0.000000
v 32.374149 32.374149 6.119633
v 32.374149 32.374149 -6.119633
v 48.727238 0.000000 6.119633
v 32.374149 -32.374149 6.119633
v 32.374149 -32.374149 -6.119633
v 48.727238 0.000000 -6.119633
v 0.000000 48.727238 -6.119633
v 0.000000 -48.727238 -6.119633
v -32.374149 -32.374149 -6.119633
v -48.727238 0.000000 -6.119633
v -32.374149 32.374149 -6.119633
v -32.374149 32.374149 6.119633
v -32.374149 -32.374149 6.119633
v -48.727238 0.000000 6.119633
v 0.000000 48.727238 6.119633
v 0.000000 -48.727238 6.119633
vn 0.8926 0.4509 0.0000
vn -0.8926 0.4509 0.0000
vn 0.4509 0.8926 0.0000
vn -0.4509 -0.8926 0.0000
vn 0.4509 -0.8926 0.0000
vn -0.4509 0.8926 0.0000
vn -0.8926 -0.4509 0.0000
vn 0.8926 -0.4509 0.0000
vn -0.2352 -0.4543 0.8592
vn 0.2352 0.4543 0.8592
vn 0.2352 -0.4543 0.8592
vn -0.2352 0.4543 0.8592
vn -0.2352 -0.4543 -0.8592
vn 0.2352 -0.4543 -0.8592
vn 0.2352 0.4543 -0.8592
vn -0.2352 0.4543 -0.8592
vn -0.4543 0.2352 -0.8592
vn 0.4543 0.2352 -0.8592
vn 0.4543 0.2352 0.8592
vn -0.4543 0.2352 0.8592
vn 0.4543 -0.2352 0.8592
vn -0.4543 -0.2352 -0.8592
vn -0.4543 -0.2352 0.8592
vn 0.4543 -0.2352 -0.8592
usemtl WALL02
s off
f 9//1 11//1 14//1 10//1
f 19//2 18//2 22//2 20//2
f 10//3 15//3 23//3 9//3
f 17//4 16//4 24//4 21//4
f 16//5 13//5 12//5 24//5
f 15//6 19//6 20//6 23//6
f 18//7 17//7 21//7 22//7
f 11//8 12//8 13//8 14//8
f 5//9 1//9 9//9 23//9
f 6//10 4//10 21//10 24//10
f 3//11 5//11 23//11 20//11
f 2//12 6//12 24//12 12//12
f 1//13 5//13 15//13 10//13
f 5//14 3//14 19//14 15//14
f 4//15 6//15 16//15 17//15
f 6//16 2//16 13//16 16//16
usemtl LIGHTS
f 2//17 7//17 14//17 13//17
f 8//18 4//18 17//18 18//18
f 4//19 8//19 22//19 21//19
f 7//20 2//20 12//20 11//20
f 8//21 3//21 20//21 22//21
f 7//22 1//22 10//22 14//22
f 1//23 7//23 11//23 9//23
f 3//24 8//24 18//24 19//24
